<svg width="100%" height="100%" viewBox="0 0 32 32" fill="none" xmlns="http://www.w3.org/2000/svg">
  <defs>
    <linearGradient id="brand-grad" x1="0%" y1="0%" x2="100%" y2="100%">
      <stop offset="0%" stopColor="#3b82f6" />
      <stop offset="50%" stopColor="#6366f1" />
      <stop offset="100%" stopColor="#10b981" />
    </linearGradient>
  </defs>
  <!-- Custom Organic Infinity Node Loop -->
  <path 
    d="M16 2C8.268 2 2 8.268 2 16c0 4.142 1.8 7.868 4.672 10.428l2.256-2.256C6.67 22.256 5.5 19.278 5.5 16c0-5.799 4.701-10.5 10.5-10.5s10.5 4.701 10.5 10.5c0 3.278-1.17 6.256-3.428 8.172l2.256 2.256C28.2 23.868 30 20.142 30 16c0-7.732-6.268-14-14-14z" 
    fill="url(#brand-grad)" 
  />
  <path 
    d="M16 9c-3.866 0-7 3.134-7 7s3.134 7 7 7 7-3.134 7-7-3.134-7-7-7zm0 10.5c-1.933 0-3.5-1.567-3.5-3.5s1.567-3.5 3.5-3.5 3.5 1.567 3.5 3.5-1.567 3.5-3.5 3.5z" 
    fill="url(#brand-grad)" 
    opacity="0.8"
  />
  <circle cx="16" cy="16" r="2.5" fill="#10b981" />
</svg>