<svg xmlns="http://www.w3.org/2000/svg" viewBox="0 0 1224 1224">
<path fill="#0066FF" fill-rule="evenodd" d="M 585 26 L 584 27 L 581 27 L 580 28 L 579 28 L 578 29 L 577 29 L 573 33 L 573 34 L 572 35 L 572 36 L 571 37 L 571 38 L 570 39 L 570 51 L 569 52 L 569 69 L 568 70 L 568 87 L 567 88 L 563 88 L 562 89 L 541 89 L 540 90 L 538 90 L 537 91 L 536 91 L 531 96 L 531 97 L 530 98 L 530 99 L 529 100 L 529 125 L 530 126 L 530 146 L 529 147 L 521 147 L 520 148 L 513 148 L 512 149 L 507 149 L 506 150 L 504 150 L 502 152 L 501 152 L 500 153 L 500 154 L 498 156 L 498 157 L 497 158 L 497 170 L 498 171 L 498 178 L 499 179 L 499 186 L 500 187 L 500 195 L 501 196 L 501 201 L 500 202 L 496 202 L 495 203 L 491 203 L 490 204 L 487 204 L 486 205 L 482 205 L 481 206 L 479 206 L 474 211 L 474 212 L 473 213 L 473 224 L 474 225 L 474 228 L 475 229 L 475 233 L 476 234 L 476 238 L 477 239 L 477 243 L 478 244 L 478 247 L 479 248 L 479 252 L 477 254 L 475 254 L 474 255 L 471 255 L 470 256 L 468 256 L 467 257 L 465 257 L 464 258 L 462 258 L 461 259 L 460 259 L 457 262 L 457 263 L 456 264 L 456 265 L 455 266 L 455 272 L 456 273 L 456 275 L 457 276 L 457 278 L 458 279 L 458 282 L 459 283 L 459 285 L 460 286 L 460 288 L 461 289 L 461 291 L 462 292 L 462 295 L 463 296 L 463 298 L 464 299 L 464 300 L 462 302 L 460 302 L 459 303 L 458 303 L 457 304 L 455 304 L 454 305 L 453 305 L 452 306 L 450 306 L 449 307 L 448 307 L 445 310 L 445 311 L 444 312 L 444 320 L 445 321 L 445 323 L 446 324 L 446 325 L 447 326 L 447 328 L 448 329 L 448 330 L 449 331 L 449 333 L 450 334 L 450 335 L 451 336 L 451 338 L 452 339 L 452 340 L 453 341 L 453 343 L 454 344 L 454 345 L 453 346 L 452 346 L 451 347 L 450 347 L 449 348 L 448 348 L 447 349 L 446 349 L 445 350 L 444 350 L 443 351 L 442 351 L 441 352 L 440 352 L 438 354 L 438 355 L 437 356 L 437 363 L 438 364 L 438 365 L 439 366 L 439 367 L 440 368 L 440 369 L 441 370 L 441 371 L 442 372 L 442 373 L 443 374 L 443 375 L 444 376 L 444 377 L 445 378 L 445 379 L 446 380 L 446 381 L 447 382 L 447 383 L 448 384 L 448 385 L 445 388 L 444 388 L 443 389 L 442 389 L 440 391 L 439 391 L 435 395 L 435 397 L 434 398 L 434 401 L 435 402 L 435 403 L 436 404 L 436 405 L 437 406 L 437 407 L 439 409 L 439 410 L 441 412 L 441 413 L 442 414 L 442 415 L 444 417 L 444 418 L 446 420 L 446 421 L 447 422 L 446 423 L 445 423 L 442 426 L 441 426 L 438 429 L 437 429 L 437 430 L 436 431 L 436 432 L 435 433 L 435 437 L 436 438 L 436 439 L 438 441 L 438 442 L 441 445 L 441 446 L 444 449 L 444 450 L 447 453 L 447 454 L 448 455 L 443 460 L 442 460 L 440 462 L 440 463 L 439 464 L 439 470 L 441 472 L 441 473 L 449 481 L 449 482 L 451 484 L 451 485 L 450 486 L 450 487 L 445 492 L 445 493 L 444 494 L 444 497 L 445 498 L 445 499 L 453 507 L 454 507 L 457 510 L 457 512 L 453 516 L 453 517 L 452 518 L 452 523 L 453 524 L 453 525 L 454 525 L 458 529 L 459 529 L 462 532 L 463 532 L 465 534 L 463 536 L 463 537 L 461 539 L 461 540 L 460 541 L 460 544 L 461 545 L 461 546 L 462 547 L 463 547 L 465 549 L 466 549 L 468 551 L 469 551 L 471 553 L 472 553 L 473 554 L 472 555 L 472 556 L 471 557 L 471 558 L 470 559 L 470 564 L 472 566 L 473 566 L 474 567 L 475 567 L 477 569 L 478 569 L 479 570 L 480 570 L 482 572 L 481 573 L 481 574 L 480 575 L 480 581 L 482 583 L 482 585 L 481 586 L 481 590 L 479 592 L 474 592 L 473 591 L 471 591 L 470 590 L 470 587 L 471 586 L 471 579 L 469 577 L 468 577 L 467 576 L 462 576 L 461 575 L 459 575 L 458 574 L 458 571 L 459 570 L 459 567 L 460 566 L 460 562 L 459 561 L 459 560 L 457 558 L 454 558 L 453 557 L 450 557 L 449 556 L 447 556 L 446 555 L 446 554 L 447 553 L 447 550 L 448 549 L 448 547 L 449 546 L 449 540 L 448 539 L 448 538 L 447 538 L 446 537 L 445 537 L 444 536 L 442 536 L 441 535 L 439 535 L 438 534 L 436 534 L 435 533 L 435 531 L 436 530 L 436 529 L 437 528 L 437 526 L 438 525 L 438 524 L 439 523 L 439 521 L 440 520 L 440 518 L 439 517 L 439 515 L 436 512 L 435 512 L 434 511 L 433 511 L 432 510 L 430 510 L 429 509 L 428 509 L 427 508 L 426 508 L 425 507 L 425 505 L 426 504 L 426 503 L 427 502 L 427 501 L 428 500 L 428 499 L 429 498 L 429 497 L 430 496 L 430 495 L 431 494 L 431 488 L 430 487 L 430 486 L 428 484 L 427 484 L 425 482 L 424 482 L 423 481 L 422 481 L 421 480 L 420 480 L 419 479 L 418 479 L 417 478 L 416 478 L 415 477 L 417 475 L 417 474 L 418 473 L 418 472 L 420 470 L 420 469 L 422 467 L 422 466 L 424 464 L 424 461 L 425 460 L 425 458 L 424 457 L 424 455 L 419 450 L 418 450 L 416 448 L 415 448 L 414 447 L 413 447 L 411 445 L 410 445 L 408 443 L 411 440 L 411 439 L 415 435 L 415 434 L 418 431 L 418 430 L 420 428 L 420 420 L 419 419 L 419 418 L 414 413 L 413 413 L 409 409 L 408 409 L 404 405 L 407 402 L 407 401 L 417 391 L 417 390 L 418 389 L 418 388 L 419 387 L 419 380 L 418 379 L 418 378 L 417 377 L 417 376 L 413 372 L 412 372 L 403 363 L 403 362 L 409 356 L 410 356 L 420 346 L 420 345 L 421 344 L 421 342 L 422 341 L 422 337 L 421 336 L 421 334 L 420 333 L 420 332 L 417 329 L 417 328 L 408 319 L 408 318 L 405 315 L 406 314 L 407 314 L 410 311 L 411 311 L 414 308 L 415 308 L 418 305 L 419 305 L 423 301 L 424 301 L 426 299 L 426 298 L 428 296 L 428 293 L 429 292 L 429 287 L 428 286 L 428 284 L 427 283 L 427 282 L 425 280 L 425 279 L 422 276 L 422 275 L 419 272 L 419 271 L 416 268 L 416 267 L 413 264 L 413 263 L 415 261 L 416 261 L 418 259 L 419 259 L 420 258 L 421 258 L 423 256 L 424 256 L 426 254 L 427 254 L 428 253 L 429 253 L 431 251 L 432 251 L 434 249 L 435 249 L 439 245 L 439 244 L 440 243 L 440 242 L 441 241 L 441 231 L 440 230 L 440 228 L 438 226 L 438 225 L 436 223 L 436 222 L 435 221 L 435 220 L 433 218 L 433 217 L 432 216 L 432 215 L 430 213 L 430 212 L 428 210 L 428 209 L 427 208 L 427 207 L 426 206 L 427 205 L 428 205 L 429 204 L 430 204 L 431 203 L 432 203 L 433 202 L 434 202 L 435 201 L 436 201 L 437 200 L 438 200 L 439 199 L 440 199 L 441 198 L 442 198 L 443 197 L 444 197 L 445 196 L 446 196 L 447 195 L 448 195 L 449 194 L 450 194 L 451 193 L 452 193 L 455 190 L 456 190 L 456 189 L 459 186 L 459 184 L 460 183 L 460 180 L 461 179 L 461 175 L 460 174 L 460 171 L 459 170 L 459 169 L 458 168 L 458 167 L 457 166 L 457 165 L 456 164 L 456 163 L 455 162 L 455 161 L 454 160 L 454 159 L 453 158 L 453 157 L 452 156 L 452 155 L 451 154 L 451 153 L 450 152 L 450 151 L 449 150 L 449 149 L 448 148 L 448 147 L 447 146 L 447 145 L 446 144 L 446 143 L 445 142 L 445 141 L 444 140 L 444 139 L 443 138 L 443 137 L 442 136 L 442 135 L 441 134 L 441 133 L 440 132 L 440 131 L 438 129 L 438 128 L 437 127 L 437 126 L 436 125 L 436 124 L 435 123 L 435 122 L 434 121 L 434 120 L 433 119 L 433 118 L 432 117 L 432 116 L 431 115 L 431 114 L 430 113 L 430 112 L 429 111 L 429 110 L 428 109 L 428 108 L 427 107 L 427 106 L 426 105 L 426 104 L 425 103 L 425 102 L 424 101 L 424 100 L 423 99 L 423 98 L 422 97 L 422 96 L 421 95 L 421 94 L 420 93 L 420 92 L 419 91 L 419 90 L 418 89 L 418 88 L 417 87 L 417 86 L 416 85 L 416 84 L 415 83 L 415 82 L 414 81 L 414 80 L 413 79 L 413 78 L 412 77 L 412 76 L 410 74 L 410 73 L 407 70 L 406 70 L 404 68 L 402 68 L 401 67 L 391 67 L 390 68 L 388 68 L 387 69 L 386 69 L 385 70 L 384 70 L 383 71 L 382 71 L 381 72 L 380 72 L 379 73 L 378 73 L 377 74 L 376 74 L 375 75 L 374 75 L 373 76 L 372 76 L 370 78 L 369 78 L 368 79 L 367 79 L 366 80 L 365 80 L 364 81 L 363 81 L 362 82 L 361 82 L 360 83 L 359 83 L 358 84 L 357 84 L 356 85 L 355 85 L 354 86 L 353 86 L 352 87 L 351 87 L 350 88 L 349 88 L 348 89 L 347 89 L 346 90 L 345 90 L 344 91 L 343 91 L 342 92 L 341 92 L 340 93 L 339 93 L 338 94 L 337 94 L 336 95 L 335 95 L 334 96 L 333 96 L 332 97 L 331 97 L 330 98 L 329 98 L 328 99 L 327 99 L 326 100 L 325 100 L 324 101 L 323 101 L 322 102 L 321 102 L 320 103 L 319 103 L 318 104 L 317 104 L 316 105 L 315 105 L 314 106 L 313 106 L 312 107 L 311 107 L 310 108 L 309 108 L 308 109 L 307 109 L 305 111 L 304 111 L 303 112 L 302 112 L 301 113 L 300 113 L 299 114 L 298 114 L 297 115 L 296 115 L 295 116 L 294 116 L 293 117 L 292 117 L 289 120 L 289 121 L 287 123 L 287 124 L 286 125 L 286 129 L 285 130 L 285 133 L 286 134 L 286 137 L 287 138 L 287 140 L 288 141 L 288 142 L 289 143 L 289 144 L 290 145 L 290 146 L 291 147 L 291 148 L 293 150 L 293 151 L 294 152 L 294 153 L 295 154 L 295 155 L 296 156 L 296 157 L 297 158 L 297 159 L 298 160 L 298 161 L 299 162 L 299 163 L 300 164 L 300 165 L 301 166 L 301 167 L 302 168 L 302 169 L 303 170 L 303 171 L 304 172 L 304 173 L 305 174 L 305 175 L 306 176 L 306 177 L 307 178 L 307 180 L 305 182 L 304 182 L 303 183 L 302 183 L 300 185 L 299 185 L 297 187 L 296 187 L 295 188 L 294 188 L 292 190 L 291 190 L 289 192 L 288 192 L 286 194 L 285 194 L 284 195 L 284 196 L 282 198 L 282 200 L 281 201 L 281 211 L 282 212 L 282 213 L 283 214 L 283 215 L 284 216 L 284 217 L 286 219 L 286 220 L 288 222 L 288 223 L 289 224 L 289 225 L 291 227 L 291 228 L 293 230 L 293 231 L 294 232 L 294 233 L 296 235 L 296 236 L 298 238 L 298 239 L 299 240 L 299 241 L 301 243 L 301 244 L 303 246 L 303 247 L 304 248 L 304 249 L 302 251 L 301 251 L 298 254 L 297 254 L 294 257 L 293 257 L 290 260 L 289 260 L 284 265 L 284 266 L 283 267 L 283 269 L 282 270 L 282 276 L 283 277 L 283 279 L 284 280 L 284 281 L 286 283 L 286 284 L 289 287 L 289 288 L 292 291 L 292 292 L 296 296 L 296 297 L 299 300 L 299 301 L 302 304 L 302 305 L 305 308 L 305 309 L 307 311 L 305 313 L 304 313 L 296 321 L 295 321 L 291 325 L 291 326 L 290 327 L 290 328 L 289 329 L 289 338 L 290 339 L 290 340 L 295 345 L 295 346 L 303 354 L 303 355 L 312 364 L 312 365 L 313 366 L 313 367 L 310 370 L 310 371 L 301 380 L 301 381 L 300 382 L 300 385 L 299 386 L 299 388 L 300 389 L 300 392 L 302 394 L 302 395 L 304 397 L 305 397 L 319 411 L 320 411 L 324 415 L 324 416 L 323 417 L 323 418 L 320 421 L 320 422 L 316 426 L 316 427 L 314 429 L 314 431 L 313 432 L 313 437 L 314 438 L 314 439 L 315 440 L 315 441 L 317 443 L 318 443 L 321 446 L 322 446 L 326 450 L 327 450 L 330 453 L 331 453 L 335 457 L 336 457 L 338 459 L 337 460 L 337 461 L 335 463 L 335 464 L 333 466 L 333 467 L 331 469 L 331 470 L 330 471 L 330 473 L 329 474 L 329 478 L 330 479 L 330 480 L 331 481 L 331 482 L 332 483 L 333 483 L 335 485 L 336 485 L 338 487 L 339 487 L 341 489 L 342 489 L 344 491 L 345 491 L 346 492 L 347 492 L 349 494 L 350 494 L 353 497 L 353 498 L 352 499 L 352 500 L 351 501 L 351 502 L 350 503 L 350 504 L 349 505 L 349 506 L 348 507 L 348 508 L 347 509 L 347 515 L 349 517 L 349 518 L 350 518 L 352 520 L 353 520 L 354 521 L 355 521 L 356 522 L 357 522 L 358 523 L 359 523 L 360 524 L 361 524 L 362 525 L 363 525 L 364 526 L 365 526 L 367 528 L 368 528 L 370 530 L 370 531 L 369 532 L 369 533 L 368 534 L 368 536 L 367 537 L 367 538 L 366 539 L 366 546 L 370 550 L 372 550 L 373 551 L 374 551 L 375 552 L 376 552 L 377 553 L 379 553 L 380 554 L 381 554 L 382 555 L 383 555 L 384 556 L 386 556 L 388 558 L 387 559 L 387 562 L 386 563 L 386 565 L 385 566 L 385 572 L 388 575 L 389 575 L 390 576 L 392 576 L 393 577 L 395 577 L 396 578 L 398 578 L 399 579 L 401 579 L 402 580 L 404 580 L 406 582 L 406 583 L 405 584 L 405 587 L 404 588 L 404 593 L 405 594 L 405 595 L 407 597 L 410 597 L 411 598 L 414 598 L 415 599 L 419 599 L 420 600 L 423 600 L 424 601 L 424 605 L 423 606 L 423 612 L 426 615 L 431 615 L 432 616 L 438 616 L 439 617 L 441 617 L 442 618 L 442 627 L 444 629 L 446 629 L 447 630 L 458 630 L 459 631 L 459 638 L 460 639 L 460 640 L 461 640 L 462 641 L 475 641 L 476 642 L 476 648 L 478 650 L 480 650 L 482 652 L 482 654 L 483 655 L 483 658 L 484 659 L 484 660 L 483 661 L 481 661 L 480 662 L 479 662 L 478 663 L 477 663 L 476 664 L 475 664 L 474 663 L 474 661 L 473 660 L 473 659 L 472 658 L 472 656 L 469 653 L 463 653 L 462 654 L 461 654 L 460 655 L 458 655 L 457 656 L 455 654 L 455 652 L 454 651 L 454 648 L 453 647 L 453 646 L 452 645 L 452 644 L 451 644 L 450 643 L 443 643 L 442 644 L 440 644 L 439 645 L 437 645 L 435 643 L 435 639 L 434 638 L 434 634 L 433 633 L 433 632 L 431 630 L 429 630 L 428 629 L 426 629 L 425 630 L 421 630 L 420 631 L 417 631 L 416 632 L 415 631 L 415 629 L 414 628 L 414 621 L 413 620 L 413 617 L 409 613 L 401 613 L 400 614 L 394 614 L 393 613 L 393 606 L 392 605 L 392 597 L 389 594 L 388 594 L 387 593 L 371 593 L 370 592 L 370 587 L 371 586 L 371 575 L 370 574 L 370 572 L 368 570 L 367 570 L 366 569 L 365 569 L 364 568 L 350 568 L 349 567 L 348 567 L 347 566 L 347 565 L 348 564 L 348 558 L 349 557 L 349 551 L 350 550 L 350 548 L 349 547 L 349 545 L 348 544 L 348 543 L 345 540 L 344 540 L 343 539 L 339 539 L 338 538 L 331 538 L 330 537 L 325 537 L 324 536 L 324 535 L 325 534 L 325 531 L 326 530 L 326 527 L 327 526 L 327 523 L 328 522 L 328 518 L 329 517 L 329 514 L 328 513 L 328 511 L 327 510 L 327 509 L 324 506 L 323 506 L 322 505 L 321 505 L 320 504 L 317 504 L 316 503 L 312 503 L 311 502 L 308 502 L 307 501 L 304 501 L 302 499 L 302 498 L 303 497 L 303 495 L 304 494 L 304 492 L 305 491 L 305 489 L 306 488 L 306 486 L 307 485 L 307 483 L 308 482 L 308 479 L 309 478 L 309 474 L 308 473 L 308 471 L 307 470 L 307 469 L 303 465 L 301 465 L 300 464 L 298 464 L 297 463 L 295 463 L 294 462 L 292 462 L 291 461 L 289 461 L 288 460 L 286 460 L 285 459 L 283 459 L 281 457 L 281 456 L 282 455 L 282 453 L 283 452 L 283 451 L 284 450 L 284 449 L 285 448 L 285 446 L 286 445 L 286 444 L 287 443 L 287 442 L 288 441 L 288 439 L 289 438 L 289 437 L 290 436 L 290 426 L 289 425 L 289 424 L 288 423 L 288 422 L 285 419 L 284 419 L 283 418 L 282 418 L 281 417 L 279 417 L 278 416 L 277 416 L 276 415 L 275 415 L 274 414 L 272 414 L 271 413 L 270 413 L 269 412 L 268 412 L 267 411 L 265 411 L 264 410 L 263 410 L 261 408 L 262 407 L 262 406 L 263 405 L 263 404 L 264 403 L 264 402 L 266 400 L 266 399 L 267 398 L 267 397 L 268 396 L 268 395 L 269 394 L 269 393 L 270 392 L 270 391 L 271 390 L 271 389 L 272 388 L 272 387 L 273 386 L 273 385 L 274 384 L 274 381 L 275 380 L 275 377 L 274 376 L 274 373 L 273 372 L 273 371 L 272 370 L 272 369 L 269 366 L 268 366 L 266 364 L 265 364 L 264 363 L 263 363 L 262 362 L 261 362 L 260 361 L 259 361 L 258 360 L 257 360 L 256 359 L 255 359 L 253 357 L 252 357 L 251 356 L 250 356 L 249 355 L 248 355 L 247 354 L 246 354 L 244 352 L 246 350 L 246 349 L 248 347 L 248 346 L 250 344 L 250 343 L 252 341 L 252 340 L 254 338 L 254 337 L 255 336 L 255 335 L 257 333 L 257 332 L 259 330 L 259 329 L 261 327 L 261 325 L 262 324 L 262 314 L 261 313 L 261 312 L 260 311 L 260 310 L 259 309 L 259 308 L 256 305 L 255 305 L 253 303 L 252 303 L 250 301 L 249 301 L 247 299 L 246 299 L 245 298 L 244 298 L 242 296 L 241 296 L 239 294 L 238 294 L 236 292 L 235 292 L 233 290 L 232 290 L 230 288 L 229 288 L 227 286 L 226 286 L 225 285 L 224 285 L 222 283 L 221 283 L 219 281 L 218 281 L 216 279 L 215 279 L 213 277 L 212 277 L 210 275 L 209 275 L 207 273 L 206 273 L 204 271 L 203 271 L 202 270 L 201 270 L 199 268 L 198 268 L 196 266 L 195 266 L 193 264 L 192 264 L 190 262 L 189 262 L 187 260 L 186 260 L 184 258 L 183 258 L 182 257 L 181 257 L 179 255 L 178 255 L 176 253 L 175 253 L 173 251 L 172 251 L 170 249 L 169 249 L 167 247 L 166 247 L 165 246 L 163 246 L 162 245 L 152 245 L 151 246 L 150 246 L 149 247 L 148 247 L 147 248 L 146 248 L 143 251 L 143 252 L 141 254 L 141 255 L 139 257 L 139 258 L 138 259 L 138 260 L 136 262 L 136 263 L 134 265 L 134 266 L 132 268 L 132 269 L 130 271 L 130 272 L 128 274 L 128 275 L 126 277 L 126 278 L 125 279 L 125 280 L 123 282 L 123 283 L 121 285 L 121 286 L 119 288 L 119 289 L 117 291 L 117 292 L 115 294 L 115 295 L 113 297 L 113 298 L 111 300 L 111 301 L 110 302 L 110 303 L 108 305 L 108 306 L 106 308 L 106 309 L 104 311 L 104 312 L 102 314 L 102 315 L 100 317 L 100 318 L 98 320 L 98 321 L 97 322 L 97 323 L 95 325 L 95 326 L 93 328 L 93 329 L 91 331 L 91 332 L 89 334 L 89 335 L 87 337 L 87 338 L 85 340 L 85 341 L 84 342 L 84 344 L 83 345 L 83 354 L 84 355 L 84 357 L 85 358 L 85 359 L 91 365 L 92 365 L 94 367 L 95 367 L 97 369 L 98 369 L 100 371 L 101 371 L 103 373 L 104 373 L 105 374 L 106 374 L 108 376 L 109 376 L 111 378 L 112 378 L 114 380 L 115 380 L 117 382 L 118 382 L 120 384 L 121 384 L 123 386 L 124 386 L 125 387 L 126 387 L 128 389 L 128 391 L 127 392 L 127 393 L 126 394 L 126 395 L 125 396 L 125 397 L 124 398 L 124 399 L 122 401 L 122 402 L 121 403 L 121 404 L 120 405 L 120 406 L 119 407 L 119 408 L 118 409 L 118 410 L 117 411 L 117 413 L 116 414 L 116 421 L 117 422 L 117 424 L 118 425 L 118 426 L 123 431 L 124 431 L 125 432 L 126 432 L 127 433 L 128 433 L 129 434 L 130 434 L 131 435 L 132 435 L 134 437 L 135 437 L 136 438 L 137 438 L 138 439 L 139 439 L 140 440 L 141 440 L 142 441 L 143 441 L 144 442 L 145 442 L 146 443 L 147 443 L 149 445 L 150 445 L 151 446 L 152 446 L 153 447 L 154 447 L 155 448 L 156 448 L 157 449 L 158 449 L 160 451 L 160 452 L 159 453 L 159 455 L 158 456 L 158 457 L 157 458 L 157 459 L 156 460 L 156 462 L 155 463 L 155 464 L 154 465 L 154 466 L 153 467 L 153 469 L 152 470 L 152 472 L 151 473 L 151 478 L 152 479 L 152 481 L 153 482 L 153 483 L 154 484 L 154 485 L 156 487 L 157 487 L 158 488 L 159 488 L 160 489 L 161 489 L 162 490 L 163 490 L 164 491 L 166 491 L 167 492 L 168 492 L 169 493 L 170 493 L 171 494 L 173 494 L 174 495 L 175 495 L 176 496 L 178 496 L 179 497 L 180 497 L 181 498 L 182 498 L 183 499 L 185 499 L 186 500 L 187 500 L 188 501 L 189 501 L 190 502 L 192 502 L 193 503 L 193 506 L 192 507 L 192 509 L 191 510 L 191 512 L 190 513 L 190 515 L 189 516 L 189 518 L 188 519 L 188 522 L 187 523 L 187 527 L 188 528 L 188 531 L 190 533 L 190 534 L 191 535 L 192 535 L 194 537 L 196 537 L 197 538 L 199 538 L 200 539 L 202 539 L 203 540 L 205 540 L 206 541 L 208 541 L 209 542 L 211 542 L 212 543 L 214 543 L 215 544 L 217 544 L 218 545 L 221 545 L 222 546 L 224 546 L 225 547 L 226 547 L 227 548 L 227 552 L 226 553 L 226 556 L 225 557 L 225 560 L 224 561 L 224 571 L 225 572 L 225 573 L 226 574 L 226 575 L 227 576 L 228 576 L 229 577 L 230 577 L 231 578 L 234 578 L 235 579 L 238 579 L 239 580 L 242 580 L 243 581 L 247 581 L 248 582 L 251 582 L 252 583 L 255 583 L 256 584 L 259 584 L 261 586 L 261 591 L 260 592 L 260 598 L 259 599 L 259 604 L 260 605 L 260 606 L 261 607 L 261 608 L 263 610 L 264 610 L 265 611 L 266 611 L 267 612 L 273 612 L 274 613 L 280 613 L 281 614 L 287 614 L 288 615 L 294 615 L 295 616 L 295 620 L 294 621 L 294 633 L 295 634 L 295 635 L 298 638 L 299 638 L 300 639 L 309 639 L 310 640 L 326 640 L 327 641 L 327 654 L 328 655 L 328 657 L 331 660 L 332 660 L 333 661 L 350 661 L 351 660 L 357 660 L 358 661 L 358 665 L 359 666 L 359 673 L 360 674 L 360 675 L 362 677 L 363 677 L 364 678 L 372 678 L 373 677 L 380 677 L 381 676 L 386 676 L 388 678 L 388 682 L 389 683 L 389 687 L 392 690 L 393 690 L 394 691 L 398 691 L 399 690 L 403 690 L 404 689 L 408 689 L 409 688 L 413 688 L 414 687 L 415 688 L 415 690 L 416 691 L 416 694 L 417 695 L 417 697 L 420 700 L 426 700 L 427 699 L 429 699 L 430 698 L 433 698 L 434 697 L 436 697 L 437 696 L 440 696 L 441 697 L 441 699 L 442 700 L 442 701 L 443 702 L 443 704 L 445 706 L 451 706 L 452 705 L 454 705 L 455 704 L 456 704 L 457 703 L 459 703 L 460 702 L 461 702 L 462 701 L 463 701 L 464 702 L 464 703 L 465 704 L 465 705 L 466 706 L 466 707 L 469 710 L 473 710 L 474 709 L 475 709 L 476 708 L 477 708 L 478 707 L 479 707 L 480 706 L 481 706 L 482 705 L 483 705 L 484 704 L 485 704 L 486 705 L 486 706 L 487 707 L 487 708 L 490 711 L 495 711 L 497 709 L 498 709 L 500 707 L 501 707 L 502 706 L 503 706 L 504 705 L 508 709 L 508 710 L 509 710 L 510 711 L 513 711 L 514 710 L 521 717 L 520 718 L 520 719 L 518 721 L 518 722 L 516 724 L 514 724 L 511 721 L 510 721 L 508 719 L 502 719 L 500 721 L 500 722 L 495 727 L 488 720 L 486 720 L 485 719 L 482 719 L 481 720 L 480 720 L 476 724 L 476 725 L 473 728 L 466 721 L 466 720 L 465 719 L 464 719 L 463 718 L 458 718 L 457 719 L 456 719 L 452 723 L 451 723 L 448 726 L 447 726 L 446 725 L 446 724 L 443 721 L 443 720 L 438 715 L 437 715 L 436 714 L 432 714 L 431 715 L 430 715 L 429 716 L 428 716 L 425 719 L 424 719 L 420 723 L 419 722 L 419 721 L 418 720 L 418 719 L 416 717 L 416 716 L 414 714 L 414 713 L 413 712 L 413 711 L 411 709 L 410 709 L 409 708 L 407 708 L 406 707 L 405 707 L 404 708 L 401 708 L 399 710 L 398 710 L 396 712 L 395 712 L 394 713 L 393 713 L 391 715 L 390 715 L 388 713 L 388 712 L 387 711 L 387 710 L 386 709 L 386 708 L 385 707 L 385 706 L 384 705 L 384 704 L 383 703 L 383 702 L 379 698 L 377 698 L 376 697 L 372 697 L 371 698 L 370 698 L 369 699 L 368 699 L 367 700 L 366 700 L 365 701 L 364 701 L 363 702 L 362 702 L 361 703 L 360 703 L 359 704 L 358 704 L 357 705 L 356 704 L 356 703 L 355 702 L 355 700 L 354 699 L 354 698 L 353 697 L 353 695 L 352 694 L 352 693 L 351 692 L 351 690 L 350 689 L 350 688 L 348 686 L 348 685 L 347 685 L 346 684 L 345 684 L 344 683 L 337 683 L 336 684 L 335 684 L 334 685 L 332 685 L 331 686 L 330 686 L 329 687 L 327 687 L 326 688 L 325 688 L 324 689 L 322 689 L 320 687 L 320 684 L 319 683 L 319 681 L 318 680 L 318 678 L 317 677 L 317 674 L 316 673 L 316 671 L 315 670 L 315 669 L 311 665 L 310 665 L 309 664 L 301 664 L 300 665 L 297 665 L 296 666 L 294 666 L 293 667 L 291 667 L 290 668 L 288 668 L 287 669 L 284 669 L 283 668 L 283 665 L 282 664 L 282 660 L 281 659 L 281 655 L 280 654 L 280 651 L 279 650 L 279 647 L 278 646 L 278 645 L 273 640 L 271 640 L 270 639 L 264 639 L 263 640 L 259 640 L 258 641 L 254 641 L 253 642 L 250 642 L 249 643 L 245 643 L 244 642 L 244 641 L 243 640 L 243 633 L 242 632 L 242 625 L 241 624 L 241 618 L 240 617 L 240 616 L 239 615 L 239 614 L 235 610 L 234 610 L 233 609 L 231 609 L 230 608 L 223 608 L 222 609 L 215 609 L 214 610 L 207 610 L 206 611 L 203 611 L 202 610 L 202 585 L 201 584 L 201 580 L 200 579 L 200 578 L 199 577 L 199 576 L 196 573 L 195 573 L 194 572 L 193 572 L 192 571 L 191 571 L 190 570 L 172 570 L 171 571 L 161 571 L 160 570 L 160 556 L 161 555 L 161 536 L 160 535 L 160 534 L 159 533 L 159 532 L 158 531 L 158 530 L 155 527 L 154 527 L 153 526 L 152 526 L 151 525 L 150 525 L 149 524 L 139 524 L 138 523 L 120 523 L 119 522 L 102 522 L 101 521 L 83 521 L 82 520 L 65 520 L 64 519 L 46 519 L 45 518 L 37 518 L 36 519 L 33 519 L 32 520 L 31 520 L 30 521 L 29 521 L 25 525 L 25 526 L 24 527 L 24 528 L 23 529 L 23 531 L 22 532 L 22 546 L 21 547 L 21 565 L 20 566 L 20 584 L 19 585 L 19 602 L 18 603 L 18 621 L 17 622 L 17 646 L 18 647 L 18 648 L 19 649 L 19 650 L 24 655 L 25 655 L 26 656 L 28 656 L 29 657 L 36 657 L 37 658 L 55 658 L 56 659 L 73 659 L 74 660 L 78 660 L 79 661 L 79 684 L 80 685 L 80 688 L 81 689 L 81 691 L 86 696 L 87 696 L 88 697 L 89 697 L 90 698 L 123 698 L 124 697 L 136 697 L 137 698 L 137 704 L 138 705 L 138 712 L 139 713 L 139 720 L 140 721 L 140 722 L 141 723 L 141 724 L 142 725 L 142 726 L 143 727 L 144 727 L 146 729 L 147 729 L 148 730 L 151 730 L 152 731 L 154 731 L 155 730 L 163 730 L 164 729 L 171 729 L 172 728 L 179 728 L 180 727 L 187 727 L 188 726 L 191 726 L 192 727 L 192 730 L 193 731 L 193 735 L 194 736 L 194 739 L 195 740 L 195 744 L 196 745 L 196 747 L 197 748 L 197 749 L 201 753 L 202 753 L 203 754 L 205 754 L 206 755 L 210 755 L 211 754 L 215 754 L 216 753 L 220 753 L 221 752 L 225 752 L 226 751 L 229 751 L 230 750 L 234 750 L 235 749 L 239 749 L 240 748 L 243 748 L 244 749 L 244 752 L 245 753 L 245 755 L 246 756 L 246 758 L 247 759 L 247 762 L 248 763 L 248 765 L 249 766 L 249 767 L 253 771 L 255 771 L 256 772 L 263 772 L 264 771 L 266 771 L 267 770 L 269 770 L 270 769 L 273 769 L 274 768 L 276 768 L 277 767 L 279 767 L 280 766 L 283 766 L 284 765 L 286 765 L 287 764 L 289 764 L 290 763 L 292 765 L 292 766 L 293 767 L 293 769 L 294 770 L 294 771 L 295 772 L 295 774 L 296 775 L 296 776 L 297 777 L 297 778 L 298 779 L 298 780 L 300 782 L 301 782 L 302 783 L 304 783 L 305 784 L 308 784 L 309 783 L 311 783 L 312 782 L 314 782 L 315 781 L 316 781 L 317 780 L 319 780 L 320 779 L 321 779 L 322 778 L 324 778 L 325 777 L 326 777 L 327 776 L 329 776 L 330 775 L 331 775 L 332 774 L 334 774 L 335 773 L 336 774 L 336 775 L 337 776 L 337 777 L 338 778 L 338 779 L 339 780 L 339 781 L 340 782 L 340 783 L 341 784 L 341 785 L 342 786 L 342 787 L 344 789 L 345 789 L 346 790 L 354 790 L 355 789 L 356 789 L 357 788 L 358 788 L 359 787 L 360 787 L 361 786 L 362 786 L 363 785 L 364 785 L 365 784 L 366 784 L 367 783 L 368 783 L 369 782 L 370 782 L 372 780 L 373 780 L 374 779 L 375 779 L 378 782 L 378 783 L 380 785 L 380 786 L 381 787 L 381 788 L 385 792 L 386 792 L 387 793 L 392 793 L 393 792 L 394 792 L 395 791 L 396 791 L 398 789 L 399 789 L 401 787 L 402 787 L 403 786 L 404 786 L 406 784 L 407 784 L 408 783 L 409 783 L 411 781 L 412 781 L 416 785 L 416 786 L 419 789 L 419 790 L 420 790 L 422 792 L 428 792 L 429 791 L 430 791 L 433 788 L 434 788 L 437 785 L 438 785 L 441 782 L 442 782 L 445 779 L 451 785 L 451 786 L 452 787 L 453 787 L 454 788 L 455 788 L 456 789 L 458 789 L 459 788 L 461 788 L 466 783 L 467 783 L 474 776 L 475 776 L 477 778 L 478 778 L 483 783 L 488 783 L 489 782 L 490 782 L 491 781 L 491 780 L 501 770 L 502 771 L 503 771 L 506 774 L 507 774 L 508 775 L 509 775 L 510 776 L 512 776 L 513 775 L 514 775 L 517 772 L 517 771 L 521 767 L 521 766 L 524 763 L 525 763 L 527 765 L 528 765 L 529 766 L 530 766 L 531 767 L 535 767 L 538 764 L 538 763 L 540 761 L 540 760 L 542 758 L 542 757 L 544 755 L 546 755 L 547 756 L 548 756 L 549 757 L 550 757 L 551 758 L 553 758 L 554 757 L 555 757 L 556 756 L 556 755 L 557 754 L 557 753 L 558 752 L 558 751 L 559 750 L 559 749 L 562 746 L 564 746 L 565 747 L 566 747 L 567 748 L 570 748 L 573 745 L 574 745 L 575 746 L 579 746 L 580 747 L 581 747 L 582 748 L 582 756 L 581 757 L 575 757 L 574 756 L 570 756 L 569 757 L 568 757 L 568 758 L 567 759 L 567 760 L 566 761 L 566 767 L 564 769 L 560 769 L 559 768 L 556 768 L 555 767 L 553 767 L 552 768 L 551 768 L 548 771 L 548 774 L 547 775 L 547 778 L 546 779 L 546 780 L 545 781 L 543 781 L 542 780 L 540 780 L 539 779 L 537 779 L 536 778 L 531 778 L 530 779 L 529 779 L 527 781 L 527 783 L 526 784 L 526 786 L 525 787 L 525 789 L 524 790 L 524 792 L 523 793 L 522 792 L 521 792 L 520 791 L 518 791 L 517 790 L 516 790 L 515 789 L 513 789 L 512 788 L 506 788 L 505 789 L 504 789 L 503 790 L 503 791 L 502 792 L 502 793 L 501 794 L 501 795 L 500 796 L 500 798 L 499 799 L 499 800 L 498 801 L 498 802 L 497 803 L 496 803 L 495 802 L 494 802 L 492 800 L 491 800 L 490 799 L 489 799 L 488 798 L 487 798 L 486 797 L 485 797 L 484 796 L 479 796 L 478 797 L 477 797 L 476 798 L 475 798 L 475 799 L 473 801 L 473 802 L 472 803 L 472 804 L 471 805 L 471 806 L 470 807 L 470 808 L 469 809 L 469 810 L 467 812 L 466 811 L 465 811 L 463 809 L 462 809 L 460 807 L 459 807 L 457 805 L 456 805 L 455 804 L 454 804 L 453 803 L 446 803 L 445 804 L 444 804 L 442 806 L 442 807 L 440 809 L 440 810 L 438 812 L 438 813 L 436 815 L 436 816 L 433 819 L 430 816 L 429 816 L 425 812 L 424 812 L 421 809 L 420 809 L 419 808 L 418 808 L 417 807 L 411 807 L 410 808 L 409 808 L 408 809 L 407 809 L 405 811 L 405 812 L 401 816 L 401 817 L 398 820 L 398 821 L 396 823 L 395 823 L 392 820 L 391 820 L 381 810 L 380 810 L 379 809 L 378 809 L 377 808 L 371 808 L 370 809 L 369 809 L 368 810 L 367 810 L 356 821 L 356 822 L 353 825 L 346 818 L 346 817 L 336 807 L 335 807 L 334 806 L 325 806 L 324 807 L 323 807 L 322 808 L 321 808 L 314 815 L 313 815 L 306 822 L 305 822 L 304 821 L 304 820 L 301 817 L 301 816 L 298 813 L 298 812 L 295 809 L 295 808 L 292 805 L 292 804 L 289 801 L 288 801 L 287 800 L 286 800 L 285 799 L 275 799 L 274 800 L 273 800 L 272 801 L 271 801 L 268 804 L 267 804 L 264 807 L 263 807 L 260 810 L 259 810 L 256 813 L 255 813 L 254 814 L 253 814 L 251 812 L 251 811 L 250 810 L 250 809 L 248 807 L 248 806 L 246 804 L 246 803 L 245 802 L 245 801 L 243 799 L 243 798 L 241 796 L 241 795 L 240 794 L 240 793 L 235 788 L 234 788 L 233 787 L 231 787 L 230 786 L 222 786 L 221 787 L 219 787 L 218 788 L 217 788 L 215 790 L 214 790 L 212 792 L 211 792 L 210 793 L 209 793 L 207 795 L 206 795 L 204 797 L 203 797 L 202 798 L 201 798 L 199 800 L 198 800 L 197 801 L 196 801 L 195 800 L 195 799 L 194 798 L 194 797 L 193 796 L 193 795 L 192 794 L 192 793 L 191 792 L 191 791 L 190 790 L 190 789 L 189 788 L 189 787 L 188 786 L 188 785 L 187 784 L 187 783 L 186 782 L 186 781 L 185 780 L 185 779 L 184 778 L 184 777 L 183 776 L 183 775 L 180 772 L 180 771 L 179 771 L 177 769 L 176 769 L 175 768 L 174 768 L 173 767 L 162 767 L 161 768 L 160 768 L 159 769 L 158 769 L 157 770 L 156 770 L 155 771 L 154 771 L 153 772 L 152 772 L 151 773 L 150 773 L 149 774 L 148 774 L 147 775 L 146 775 L 145 776 L 144 776 L 143 777 L 142 777 L 141 778 L 140 778 L 139 779 L 138 779 L 137 780 L 136 780 L 135 781 L 134 781 L 133 782 L 132 782 L 131 783 L 130 783 L 129 784 L 128 784 L 127 785 L 126 785 L 125 786 L 124 786 L 123 787 L 122 787 L 121 788 L 120 788 L 119 789 L 118 789 L 117 790 L 116 790 L 115 791 L 114 791 L 113 792 L 112 792 L 111 793 L 110 793 L 108 795 L 107 795 L 106 796 L 105 796 L 104 797 L 103 797 L 102 798 L 101 798 L 100 799 L 99 799 L 98 800 L 97 800 L 96 801 L 95 801 L 94 802 L 93 802 L 92 803 L 91 803 L 90 804 L 89 804 L 88 805 L 87 805 L 86 806 L 85 806 L 84 807 L 83 807 L 82 808 L 81 808 L 80 809 L 79 809 L 78 810 L 77 810 L 76 811 L 75 811 L 74 812 L 73 812 L 72 813 L 71 813 L 70 814 L 69 814 L 68 815 L 67 815 L 66 816 L 65 816 L 59 822 L 59 823 L 58 824 L 58 826 L 57 827 L 57 836 L 58 837 L 58 838 L 59 839 L 59 840 L 60 841 L 60 842 L 61 843 L 61 844 L 62 845 L 62 846 L 63 847 L 63 848 L 64 849 L 64 850 L 65 851 L 65 852 L 66 853 L 66 854 L 67 855 L 67 856 L 68 857 L 68 858 L 69 859 L 69 860 L 70 861 L 70 862 L 71 863 L 71 864 L 72 865 L 72 866 L 73 867 L 73 868 L 74 869 L 74 870 L 75 871 L 75 872 L 76 873 L 76 874 L 77 875 L 77 876 L 78 877 L 78 878 L 79 879 L 79 880 L 80 881 L 80 882 L 81 883 L 81 884 L 82 885 L 82 886 L 83 887 L 83 888 L 84 889 L 84 890 L 85 891 L 85 892 L 86 893 L 86 894 L 87 895 L 87 896 L 88 897 L 88 898 L 89 899 L 89 900 L 90 901 L 90 902 L 92 904 L 92 905 L 93 906 L 93 907 L 94 908 L 94 909 L 95 910 L 95 911 L 96 912 L 96 913 L 97 914 L 97 915 L 98 916 L 98 917 L 99 918 L 99 919 L 100 920 L 100 921 L 101 922 L 101 923 L 102 924 L 102 925 L 103 926 L 103 927 L 104 928 L 104 929 L 105 930 L 105 931 L 106 932 L 106 933 L 107 934 L 107 935 L 111 939 L 112 939 L 113 940 L 114 940 L 115 941 L 117 941 L 118 942 L 125 942 L 126 941 L 128 941 L 129 940 L 130 940 L 131 939 L 132 939 L 133 938 L 134 938 L 135 937 L 136 937 L 137 936 L 138 936 L 139 935 L 140 935 L 141 934 L 142 934 L 143 933 L 144 933 L 145 932 L 146 932 L 147 931 L 148 931 L 149 930 L 150 930 L 151 929 L 152 929 L 153 928 L 154 928 L 155 927 L 156 927 L 157 926 L 158 926 L 159 925 L 160 925 L 161 924 L 162 924 L 163 923 L 164 923 L 165 922 L 166 922 L 167 921 L 168 921 L 169 920 L 170 920 L 172 922 L 172 923 L 174 925 L 174 926 L 175 927 L 175 928 L 177 930 L 177 931 L 179 933 L 179 934 L 180 935 L 180 936 L 182 938 L 182 939 L 184 941 L 184 942 L 185 943 L 186 943 L 188 945 L 189 945 L 190 946 L 193 946 L 194 947 L 198 947 L 199 946 L 202 946 L 203 945 L 204 945 L 205 944 L 206 944 L 208 942 L 209 942 L 211 940 L 212 940 L 213 939 L 214 939 L 216 937 L 217 937 L 219 935 L 220 935 L 221 934 L 222 934 L 224 932 L 225 932 L 227 930 L 228 930 L 229 929 L 230 929 L 232 927 L 233 927 L 234 926 L 235 926 L 237 924 L 238 924 L 239 923 L 241 925 L 241 926 L 244 929 L 244 930 L 247 933 L 247 934 L 250 937 L 250 938 L 255 943 L 256 943 L 257 944 L 258 944 L 259 945 L 268 945 L 269 944 L 270 944 L 272 942 L 273 942 L 276 939 L 277 939 L 280 936 L 281 936 L 284 933 L 285 933 L 288 930 L 289 930 L 292 927 L 293 927 L 296 924 L 297 924 L 300 921 L 302 921 L 303 922 L 303 923 L 312 932 L 312 933 L 315 936 L 316 936 L 318 938 L 322 938 L 323 939 L 324 939 L 325 938 L 329 938 L 331 936 L 332 936 L 339 929 L 340 929 L 349 920 L 350 920 L 356 914 L 357 914 L 360 917 L 361 917 L 370 926 L 371 926 L 372 927 L 373 927 L 374 928 L 380 928 L 381 927 L 383 927 L 395 915 L 395 914 L 406 903 L 407 904 L 408 904 L 411 907 L 412 907 L 416 911 L 417 911 L 419 913 L 420 913 L 421 914 L 428 914 L 429 913 L 430 913 L 435 908 L 435 907 L 439 903 L 439 902 L 442 899 L 442 898 L 446 894 L 446 893 L 449 890 L 451 890 L 453 892 L 454 892 L 456 894 L 457 894 L 459 896 L 460 896 L 461 897 L 462 897 L 463 898 L 469 898 L 470 897 L 471 897 L 474 894 L 474 893 L 476 891 L 476 890 L 478 888 L 478 887 L 480 885 L 480 884 L 482 882 L 482 881 L 484 879 L 484 878 L 486 876 L 486 875 L 487 874 L 488 874 L 489 875 L 490 875 L 491 876 L 492 876 L 494 878 L 495 878 L 496 879 L 497 879 L 498 880 L 505 880 L 506 879 L 507 879 L 509 877 L 509 876 L 510 875 L 510 874 L 512 872 L 512 871 L 513 870 L 513 869 L 514 868 L 514 867 L 515 866 L 515 865 L 516 864 L 516 863 L 517 862 L 517 861 L 518 860 L 518 859 L 520 857 L 521 857 L 522 858 L 523 858 L 524 859 L 525 859 L 526 860 L 528 860 L 529 861 L 530 861 L 531 862 L 534 862 L 535 861 L 537 861 L 540 858 L 540 856 L 541 855 L 541 854 L 542 853 L 542 852 L 543 851 L 543 849 L 544 848 L 544 847 L 545 846 L 545 844 L 546 843 L 546 842 L 547 841 L 547 840 L 548 839 L 549 840 L 551 840 L 552 841 L 554 841 L 555 842 L 563 842 L 565 840 L 565 839 L 566 838 L 566 836 L 567 835 L 567 833 L 568 832 L 568 830 L 569 829 L 569 827 L 570 826 L 570 824 L 571 823 L 571 822 L 572 821 L 573 822 L 576 822 L 577 823 L 584 823 L 585 822 L 586 822 L 586 821 L 587 820 L 587 818 L 588 817 L 588 814 L 589 813 L 589 810 L 590 809 L 590 805 L 592 803 L 593 803 L 594 804 L 602 804 L 603 803 L 604 803 L 604 802 L 605 801 L 605 798 L 606 797 L 606 791 L 607 790 L 607 786 L 608 785 L 609 785 L 610 786 L 616 786 L 617 785 L 618 785 L 619 784 L 619 783 L 620 782 L 620 769 L 621 768 L 629 768 L 631 766 L 631 753 L 632 752 L 634 752 L 635 751 L 639 751 L 640 750 L 640 747 L 641 746 L 642 746 L 643 745 L 646 745 L 647 744 L 649 744 L 650 743 L 651 744 L 651 746 L 652 747 L 652 748 L 653 749 L 653 750 L 654 751 L 654 752 L 653 753 L 652 753 L 651 754 L 650 754 L 649 755 L 647 755 L 646 756 L 645 756 L 644 757 L 644 758 L 643 759 L 643 763 L 644 764 L 644 766 L 645 767 L 645 768 L 646 769 L 646 771 L 645 772 L 643 772 L 642 773 L 640 773 L 639 774 L 636 774 L 633 777 L 633 783 L 634 784 L 634 786 L 635 787 L 635 791 L 634 792 L 630 792 L 629 793 L 626 793 L 625 794 L 623 794 L 620 797 L 620 805 L 621 806 L 621 809 L 622 810 L 622 812 L 621 813 L 614 813 L 613 814 L 608 814 L 607 815 L 606 815 L 604 817 L 604 819 L 603 820 L 603 824 L 604 825 L 604 832 L 605 833 L 603 835 L 588 835 L 587 836 L 586 836 L 585 837 L 585 838 L 583 840 L 583 856 L 582 857 L 572 857 L 571 856 L 566 856 L 565 857 L 563 857 L 559 861 L 559 864 L 558 865 L 558 879 L 557 880 L 553 880 L 552 879 L 546 879 L 545 878 L 536 878 L 535 879 L 534 879 L 533 880 L 532 880 L 531 881 L 531 882 L 530 883 L 530 884 L 529 885 L 529 891 L 528 892 L 528 898 L 527 899 L 527 902 L 526 903 L 525 903 L 524 902 L 520 902 L 519 901 L 516 901 L 515 900 L 512 900 L 511 899 L 502 899 L 501 900 L 500 900 L 499 901 L 498 901 L 497 902 L 497 903 L 495 905 L 495 908 L 494 909 L 494 912 L 493 913 L 493 916 L 492 917 L 492 921 L 491 922 L 491 924 L 490 925 L 488 925 L 487 924 L 485 924 L 484 923 L 482 923 L 481 922 L 478 922 L 477 921 L 475 921 L 474 920 L 472 920 L 471 919 L 462 919 L 461 920 L 460 920 L 455 925 L 455 927 L 454 928 L 454 930 L 453 931 L 453 933 L 452 934 L 452 936 L 451 937 L 451 939 L 450 940 L 450 942 L 449 943 L 449 945 L 448 946 L 445 946 L 444 945 L 443 945 L 442 944 L 441 944 L 440 943 L 438 943 L 437 942 L 436 942 L 435 941 L 434 941 L 433 940 L 431 940 L 430 939 L 429 939 L 428 938 L 426 938 L 425 937 L 417 937 L 416 938 L 415 938 L 414 939 L 413 939 L 409 943 L 409 944 L 408 945 L 408 946 L 407 947 L 407 948 L 406 949 L 406 951 L 405 952 L 405 953 L 404 954 L 404 955 L 403 956 L 403 958 L 402 959 L 402 960 L 401 961 L 401 963 L 400 964 L 400 965 L 399 966 L 398 966 L 397 965 L 396 965 L 395 964 L 394 964 L 393 963 L 392 963 L 391 962 L 390 962 L 389 961 L 388 961 L 386 959 L 385 959 L 384 958 L 383 958 L 382 957 L 381 957 L 380 956 L 379 956 L 378 955 L 377 955 L 376 954 L 375 954 L 374 953 L 364 953 L 363 954 L 362 954 L 361 955 L 360 955 L 355 960 L 355 961 L 354 962 L 354 963 L 353 964 L 353 965 L 352 966 L 352 967 L 351 968 L 351 969 L 349 971 L 349 972 L 348 973 L 348 974 L 347 975 L 347 976 L 346 977 L 346 978 L 345 979 L 345 980 L 344 981 L 344 982 L 343 983 L 342 983 L 340 981 L 339 981 L 337 979 L 336 979 L 334 977 L 333 977 L 332 976 L 331 976 L 329 974 L 328 974 L 326 972 L 325 972 L 323 970 L 322 970 L 320 968 L 319 968 L 318 967 L 317 967 L 316 966 L 314 966 L 313 965 L 306 965 L 305 966 L 303 966 L 302 967 L 301 967 L 300 968 L 299 968 L 294 973 L 294 974 L 293 975 L 293 976 L 291 978 L 291 979 L 289 981 L 289 982 L 287 984 L 287 985 L 285 987 L 285 988 L 283 990 L 283 991 L 281 993 L 281 994 L 280 995 L 280 996 L 278 998 L 278 999 L 276 1001 L 276 1002 L 274 1004 L 274 1005 L 272 1007 L 272 1008 L 270 1010 L 270 1011 L 268 1013 L 268 1014 L 266 1016 L 266 1017 L 265 1018 L 265 1019 L 263 1021 L 263 1022 L 261 1024 L 261 1025 L 259 1027 L 259 1028 L 257 1030 L 257 1031 L 255 1033 L 255 1034 L 253 1036 L 253 1037 L 252 1038 L 252 1039 L 250 1041 L 250 1042 L 248 1044 L 248 1045 L 246 1047 L 246 1048 L 244 1050 L 244 1051 L 242 1053 L 242 1054 L 240 1056 L 240 1057 L 238 1059 L 238 1060 L 237 1061 L 237 1062 L 236 1063 L 236 1065 L 235 1066 L 235 1074 L 236 1075 L 236 1077 L 237 1078 L 237 1079 L 239 1081 L 239 1082 L 241 1084 L 242 1084 L 244 1086 L 245 1086 L 247 1088 L 248 1088 L 250 1090 L 251 1090 L 253 1092 L 254 1092 L 255 1093 L 256 1093 L 258 1095 L 259 1095 L 261 1097 L 262 1097 L 264 1099 L 265 1099 L 267 1101 L 268 1101 L 270 1103 L 271 1103 L 273 1105 L 274 1105 L 275 1106 L 276 1106 L 278 1108 L 279 1108 L 281 1110 L 282 1110 L 284 1112 L 285 1112 L 287 1114 L 288 1114 L 290 1116 L 291 1116 L 293 1118 L 294 1118 L 296 1120 L 297 1120 L 298 1121 L 299 1121 L 301 1123 L 302 1123 L 304 1125 L 305 1125 L 307 1127 L 308 1127 L 310 1129 L 311 1129 L 313 1131 L 314 1131 L 316 1133 L 317 1133 L 318 1134 L 319 1134 L 321 1136 L 322 1136 L 324 1138 L 325 1138 L 327 1140 L 328 1140 L 330 1142 L 331 1142 L 332 1143 L 333 1143 L 334 1144 L 345 1144 L 346 1143 L 348 1143 L 349 1142 L 350 1142 L 354 1138 L 354 1137 L 356 1135 L 356 1134 L 358 1132 L 358 1131 L 360 1129 L 360 1128 L 362 1126 L 362 1125 L 364 1123 L 364 1122 L 366 1120 L 366 1119 L 368 1117 L 368 1116 L 369 1115 L 369 1114 L 371 1112 L 371 1111 L 373 1109 L 373 1108 L 375 1106 L 375 1105 L 377 1103 L 377 1102 L 380 1099 L 381 1099 L 382 1100 L 383 1100 L 384 1101 L 385 1101 L 387 1103 L 388 1103 L 389 1104 L 390 1104 L 391 1105 L 392 1105 L 393 1106 L 394 1106 L 395 1107 L 396 1107 L 397 1108 L 398 1108 L 399 1109 L 400 1109 L 401 1110 L 402 1110 L 403 1111 L 412 1111 L 413 1110 L 415 1110 L 417 1108 L 418 1108 L 420 1106 L 420 1105 L 422 1103 L 422 1102 L 423 1101 L 423 1100 L 424 1099 L 424 1098 L 425 1097 L 425 1096 L 426 1095 L 426 1094 L 427 1093 L 427 1092 L 429 1090 L 429 1089 L 430 1088 L 430 1087 L 431 1086 L 431 1085 L 432 1084 L 432 1083 L 433 1082 L 433 1081 L 434 1080 L 434 1079 L 435 1078 L 435 1077 L 437 1075 L 437 1074 L 438 1073 L 438 1072 L 439 1071 L 439 1070 L 440 1069 L 440 1068 L 441 1067 L 442 1067 L 443 1068 L 444 1068 L 445 1069 L 447 1069 L 448 1070 L 449 1070 L 450 1071 L 451 1071 L 452 1072 L 454 1072 L 455 1073 L 456 1073 L 457 1074 L 458 1074 L 459 1075 L 461 1075 L 462 1076 L 470 1076 L 471 1075 L 472 1075 L 473 1074 L 474 1074 L 478 1070 L 478 1069 L 479 1068 L 479 1067 L 480 1066 L 480 1064 L 481 1063 L 481 1062 L 482 1061 L 482 1060 L 483 1059 L 483 1057 L 484 1056 L 484 1055 L 485 1054 L 485 1053 L 486 1052 L 486 1050 L 487 1049 L 487 1048 L 488 1047 L 488 1046 L 489 1045 L 489 1043 L 490 1042 L 490 1041 L 491 1040 L 491 1039 L 492 1038 L 492 1036 L 494 1034 L 496 1034 L 497 1035 L 499 1035 L 500 1036 L 502 1036 L 503 1037 L 505 1037 L 506 1038 L 508 1038 L 509 1039 L 511 1039 L 512 1040 L 519 1040 L 520 1039 L 521 1039 L 522 1038 L 523 1038 L 526 1035 L 526 1034 L 527 1033 L 527 1032 L 528 1031 L 528 1029 L 529 1028 L 529 1026 L 530 1025 L 530 1023 L 531 1022 L 531 1020 L 532 1019 L 532 1017 L 533 1016 L 533 1014 L 534 1013 L 534 1011 L 535 1010 L 535 1008 L 536 1007 L 536 1005 L 537 1004 L 537 1001 L 538 1000 L 541 1000 L 542 1001 L 545 1001 L 546 1002 L 549 1002 L 550 1003 L 554 1003 L 555 1004 L 560 1004 L 561 1003 L 562 1003 L 563 1002 L 564 1002 L 567 999 L 567 998 L 568 997 L 568 995 L 569 994 L 569 991 L 570 990 L 570 986 L 571 985 L 571 982 L 572 981 L 572 978 L 573 977 L 573 973 L 574 972 L 574 969 L 575 968 L 575 967 L 576 966 L 579 966 L 580 967 L 586 967 L 587 968 L 595 968 L 596 967 L 597 967 L 598 966 L 599 966 L 600 965 L 600 964 L 601 963 L 601 962 L 602 961 L 602 956 L 603 955 L 603 949 L 604 948 L 604 942 L 605 941 L 605 935 L 607 933 L 624 933 L 625 932 L 626 932 L 628 930 L 628 929 L 629 928 L 629 923 L 630 922 L 630 905 L 631 904 L 631 901 L 632 900 L 645 900 L 646 899 L 647 899 L 648 898 L 649 898 L 650 897 L 650 896 L 651 895 L 651 870 L 652 869 L 658 869 L 659 868 L 664 868 L 668 864 L 668 853 L 667 852 L 667 845 L 666 844 L 666 841 L 667 840 L 669 840 L 670 839 L 674 839 L 675 838 L 677 838 L 678 837 L 679 837 L 680 836 L 680 835 L 681 834 L 681 828 L 680 827 L 680 823 L 679 822 L 679 818 L 678 817 L 678 813 L 679 812 L 681 812 L 682 811 L 685 811 L 686 810 L 687 810 L 688 809 L 689 809 L 689 808 L 690 807 L 690 800 L 689 799 L 689 797 L 688 796 L 688 794 L 687 793 L 687 791 L 686 790 L 686 788 L 688 786 L 690 786 L 691 785 L 692 785 L 693 784 L 694 784 L 696 782 L 696 781 L 697 780 L 697 778 L 696 777 L 696 775 L 695 774 L 695 773 L 694 772 L 694 770 L 693 769 L 693 768 L 692 767 L 692 766 L 691 765 L 691 764 L 692 763 L 693 763 L 694 762 L 695 762 L 696 761 L 697 761 L 698 760 L 699 760 L 699 759 L 700 758 L 700 754 L 699 753 L 699 752 L 698 751 L 698 750 L 697 749 L 697 748 L 696 747 L 696 746 L 695 745 L 695 744 L 694 743 L 696 741 L 697 741 L 699 739 L 700 739 L 701 738 L 701 732 L 699 730 L 699 729 L 698 728 L 698 727 L 696 725 L 696 724 L 695 723 L 697 721 L 698 721 L 701 718 L 701 714 L 700 713 L 707 706 L 709 708 L 710 708 L 712 710 L 713 710 L 715 712 L 713 714 L 713 715 L 710 718 L 710 719 L 709 720 L 709 724 L 710 725 L 710 726 L 712 728 L 713 728 L 717 732 L 717 733 L 710 740 L 710 747 L 715 752 L 716 752 L 718 754 L 718 755 L 715 758 L 714 758 L 709 763 L 709 764 L 708 765 L 708 769 L 709 770 L 709 771 L 714 776 L 714 777 L 716 779 L 716 780 L 713 783 L 712 783 L 709 786 L 708 786 L 705 789 L 705 791 L 704 792 L 704 794 L 705 795 L 705 797 L 707 799 L 707 800 L 710 803 L 710 804 L 713 807 L 711 809 L 710 809 L 708 811 L 707 811 L 706 812 L 705 812 L 703 814 L 702 814 L 698 818 L 698 825 L 699 826 L 699 827 L 700 828 L 700 829 L 702 831 L 702 832 L 704 834 L 704 835 L 705 836 L 705 838 L 704 839 L 703 839 L 702 840 L 701 840 L 700 841 L 699 841 L 698 842 L 697 842 L 696 843 L 695 843 L 694 844 L 693 844 L 692 845 L 691 845 L 689 847 L 689 848 L 688 849 L 688 857 L 689 858 L 689 859 L 690 860 L 690 861 L 691 862 L 691 863 L 692 864 L 692 865 L 693 866 L 693 867 L 694 868 L 694 869 L 695 870 L 694 871 L 693 871 L 692 872 L 691 872 L 690 873 L 688 873 L 687 874 L 686 874 L 685 875 L 684 875 L 683 876 L 681 876 L 680 877 L 679 877 L 678 878 L 677 878 L 675 880 L 675 881 L 674 882 L 674 883 L 673 884 L 673 889 L 674 890 L 674 892 L 675 893 L 675 894 L 676 895 L 676 897 L 677 898 L 677 899 L 678 900 L 678 902 L 679 903 L 679 904 L 680 905 L 678 907 L 676 907 L 675 908 L 672 908 L 671 909 L 669 909 L 668 910 L 666 910 L 665 911 L 662 911 L 661 912 L 660 912 L 659 913 L 658 913 L 656 915 L 656 916 L 655 917 L 655 918 L 654 919 L 654 926 L 655 927 L 655 929 L 656 930 L 656 932 L 657 933 L 657 936 L 658 937 L 658 939 L 659 940 L 659 942 L 660 943 L 659 944 L 656 944 L 655 945 L 652 945 L 651 946 L 647 946 L 646 947 L 642 947 L 641 948 L 638 948 L 637 949 L 636 949 L 635 950 L 634 950 L 632 952 L 632 953 L 630 955 L 630 958 L 629 959 L 629 962 L 630 963 L 630 967 L 631 968 L 631 972 L 632 973 L 632 976 L 633 977 L 633 981 L 634 982 L 634 983 L 633 984 L 625 984 L 624 985 L 617 985 L 616 986 L 609 986 L 608 987 L 607 987 L 606 988 L 605 988 L 604 989 L 603 989 L 601 991 L 601 992 L 600 993 L 600 994 L 599 995 L 599 998 L 598 999 L 598 1002 L 599 1003 L 599 1010 L 600 1011 L 600 1018 L 601 1019 L 601 1024 L 600 1025 L 583 1025 L 582 1026 L 571 1026 L 570 1027 L 569 1027 L 568 1028 L 567 1028 L 562 1033 L 562 1034 L 561 1035 L 561 1038 L 560 1039 L 560 1047 L 561 1048 L 561 1067 L 560 1068 L 559 1067 L 542 1067 L 541 1066 L 528 1066 L 527 1067 L 525 1067 L 524 1068 L 523 1068 L 522 1069 L 521 1069 L 517 1073 L 517 1074 L 516 1075 L 516 1076 L 515 1077 L 515 1079 L 514 1080 L 514 1093 L 513 1094 L 513 1112 L 512 1113 L 512 1131 L 511 1132 L 511 1149 L 510 1150 L 510 1168 L 509 1169 L 509 1194 L 510 1195 L 510 1196 L 512 1198 L 512 1199 L 515 1202 L 516 1202 L 517 1203 L 518 1203 L 519 1204 L 520 1204 L 521 1205 L 532 1205 L 533 1206 L 550 1206 L 551 1207 L 569 1207 L 570 1208 L 587 1208 L 588 1209 L 606 1209 L 607 1210 L 625 1210 L 626 1211 L 633 1211 L 634 1210 L 637 1210 L 638 1209 L 639 1209 L 641 1207 L 642 1207 L 644 1205 L 644 1204 L 646 1202 L 646 1200 L 647 1199 L 647 1196 L 648 1195 L 648 1178 L 649 1177 L 649 1159 L 650 1158 L 650 1150 L 651 1149 L 654 1149 L 655 1148 L 676 1148 L 677 1147 L 679 1147 L 680 1146 L 681 1146 L 682 1145 L 683 1145 L 686 1142 L 686 1141 L 687 1140 L 687 1139 L 688 1138 L 688 1136 L 689 1135 L 689 1125 L 688 1124 L 688 1096 L 687 1095 L 687 1092 L 689 1090 L 696 1090 L 697 1089 L 704 1089 L 705 1088 L 711 1088 L 712 1087 L 713 1087 L 714 1086 L 715 1086 L 719 1082 L 719 1081 L 720 1080 L 720 1078 L 721 1077 L 721 1071 L 720 1070 L 720 1062 L 719 1061 L 719 1054 L 718 1053 L 718 1046 L 717 1045 L 717 1038 L 716 1037 L 718 1035 L 721 1035 L 722 1034 L 726 1034 L 727 1033 L 731 1033 L 732 1032 L 735 1032 L 736 1031 L 738 1031 L 739 1030 L 740 1030 L 743 1027 L 743 1026 L 744 1025 L 744 1024 L 745 1023 L 745 1016 L 744 1015 L 744 1011 L 743 1010 L 743 1006 L 742 1005 L 742 1001 L 741 1000 L 741 997 L 740 996 L 740 992 L 739 991 L 739 987 L 738 986 L 738 985 L 739 984 L 740 984 L 741 983 L 743 983 L 744 982 L 746 982 L 747 981 L 749 981 L 750 980 L 753 980 L 754 979 L 756 979 L 758 977 L 759 977 L 760 976 L 760 975 L 761 974 L 761 973 L 762 972 L 762 963 L 761 962 L 761 960 L 760 959 L 760 957 L 759 956 L 759 954 L 758 953 L 758 950 L 757 949 L 757 947 L 756 946 L 756 944 L 755 943 L 755 940 L 754 939 L 754 937 L 756 935 L 757 935 L 758 934 L 760 934 L 761 933 L 762 933 L 763 932 L 765 932 L 766 931 L 767 931 L 768 930 L 769 930 L 773 926 L 773 925 L 774 924 L 774 918 L 773 917 L 773 915 L 772 914 L 772 913 L 771 912 L 771 910 L 770 909 L 770 908 L 769 907 L 769 905 L 768 904 L 768 903 L 767 902 L 767 900 L 766 899 L 766 898 L 765 897 L 765 895 L 764 894 L 764 892 L 765 891 L 766 891 L 767 890 L 768 890 L 769 889 L 770 889 L 771 888 L 772 888 L 773 887 L 774 887 L 775 886 L 776 886 L 780 882 L 780 880 L 781 879 L 781 876 L 780 875 L 780 873 L 779 872 L 779 871 L 778 870 L 778 869 L 777 868 L 777 867 L 776 866 L 776 865 L 775 864 L 775 863 L 774 862 L 774 861 L 773 860 L 773 859 L 772 858 L 772 857 L 771 856 L 771 855 L 770 854 L 770 853 L 769 852 L 771 850 L 772 850 L 774 848 L 775 848 L 776 847 L 777 847 L 779 845 L 780 845 L 782 843 L 782 842 L 783 841 L 783 835 L 782 834 L 782 833 L 781 832 L 781 831 L 779 829 L 779 828 L 778 827 L 778 826 L 776 824 L 776 823 L 774 821 L 774 820 L 773 819 L 773 818 L 771 816 L 771 815 L 773 813 L 774 813 L 777 810 L 778 810 L 782 806 L 782 799 L 781 798 L 781 797 L 779 795 L 779 794 L 776 791 L 776 790 L 773 787 L 773 786 L 770 783 L 770 782 L 778 774 L 778 773 L 779 772 L 779 768 L 778 767 L 778 766 L 773 761 L 773 760 L 766 753 L 766 752 L 772 746 L 772 745 L 773 744 L 773 739 L 772 738 L 772 737 L 771 736 L 770 736 L 760 726 L 763 723 L 763 722 L 765 720 L 765 719 L 766 718 L 766 715 L 765 714 L 765 713 L 762 710 L 761 710 L 757 706 L 756 706 L 753 703 L 754 702 L 754 701 L 756 699 L 756 698 L 757 697 L 757 692 L 754 689 L 753 689 L 751 687 L 750 687 L 748 685 L 747 685 L 745 683 L 745 682 L 746 681 L 746 680 L 747 679 L 747 678 L 748 677 L 748 673 L 746 671 L 745 671 L 744 670 L 743 670 L 742 669 L 741 669 L 740 668 L 739 668 L 738 667 L 737 667 L 736 666 L 736 664 L 737 663 L 737 662 L 738 661 L 738 657 L 735 654 L 736 653 L 736 650 L 737 649 L 737 646 L 738 645 L 744 645 L 745 646 L 747 646 L 748 647 L 747 648 L 747 658 L 748 659 L 748 660 L 749 660 L 750 661 L 755 661 L 756 662 L 759 662 L 760 663 L 760 664 L 759 665 L 759 668 L 758 669 L 758 676 L 759 677 L 759 678 L 760 678 L 761 679 L 763 679 L 764 680 L 767 680 L 768 681 L 771 681 L 772 682 L 771 683 L 771 685 L 770 686 L 770 688 L 769 689 L 769 691 L 768 692 L 768 696 L 769 697 L 769 698 L 771 700 L 772 700 L 773 701 L 775 701 L 776 702 L 778 702 L 779 703 L 781 703 L 783 705 L 782 706 L 782 707 L 781 708 L 781 710 L 780 711 L 780 712 L 779 713 L 779 714 L 778 715 L 778 721 L 779 722 L 779 723 L 781 725 L 782 725 L 783 726 L 785 726 L 786 727 L 787 727 L 788 728 L 790 728 L 791 729 L 792 729 L 793 730 L 793 731 L 792 732 L 792 733 L 791 734 L 791 735 L 790 736 L 790 737 L 789 738 L 789 739 L 788 740 L 788 741 L 787 742 L 787 744 L 786 745 L 786 747 L 787 748 L 787 750 L 788 751 L 788 752 L 789 752 L 791 754 L 792 754 L 793 755 L 794 755 L 795 756 L 796 756 L 797 757 L 798 757 L 799 758 L 800 758 L 802 760 L 802 761 L 800 763 L 800 764 L 798 766 L 798 767 L 796 769 L 796 770 L 795 771 L 795 772 L 794 773 L 794 774 L 793 775 L 793 781 L 794 782 L 794 783 L 797 786 L 798 786 L 800 788 L 801 788 L 802 789 L 803 789 L 805 791 L 806 791 L 809 794 L 808 795 L 808 796 L 805 799 L 805 800 L 801 804 L 801 805 L 798 808 L 798 810 L 797 811 L 797 816 L 798 817 L 798 818 L 799 819 L 799 820 L 801 822 L 802 822 L 806 826 L 807 826 L 811 830 L 812 830 L 814 832 L 804 842 L 804 843 L 800 847 L 800 848 L 799 849 L 799 851 L 798 852 L 798 854 L 799 855 L 799 858 L 800 859 L 800 860 L 811 871 L 812 871 L 815 874 L 815 875 L 813 877 L 812 877 L 803 886 L 802 886 L 798 890 L 798 891 L 797 892 L 797 893 L 796 894 L 796 902 L 797 903 L 797 904 L 798 905 L 798 906 L 805 913 L 805 914 L 812 921 L 812 922 L 809 925 L 808 925 L 805 928 L 804 928 L 801 931 L 800 931 L 797 934 L 796 934 L 791 939 L 791 940 L 790 941 L 790 942 L 789 943 L 789 952 L 790 953 L 790 954 L 792 956 L 792 957 L 795 960 L 795 961 L 798 964 L 798 965 L 801 968 L 801 969 L 804 972 L 804 973 L 805 974 L 804 975 L 803 975 L 801 977 L 800 977 L 798 979 L 797 979 L 796 980 L 795 980 L 793 982 L 792 982 L 790 984 L 789 984 L 788 985 L 787 985 L 785 987 L 784 987 L 782 989 L 781 989 L 779 991 L 779 992 L 778 993 L 778 994 L 777 995 L 777 997 L 776 998 L 776 1004 L 777 1005 L 777 1007 L 778 1008 L 778 1009 L 779 1010 L 779 1011 L 780 1012 L 780 1013 L 782 1015 L 782 1016 L 784 1018 L 784 1019 L 785 1020 L 785 1021 L 787 1023 L 787 1024 L 789 1026 L 789 1027 L 790 1028 L 790 1029 L 792 1031 L 791 1032 L 790 1032 L 789 1033 L 788 1033 L 787 1034 L 786 1034 L 785 1035 L 784 1035 L 783 1036 L 782 1036 L 781 1037 L 780 1037 L 779 1038 L 778 1038 L 777 1039 L 776 1039 L 775 1040 L 774 1040 L 773 1041 L 772 1041 L 771 1042 L 770 1042 L 769 1043 L 768 1043 L 767 1044 L 766 1044 L 765 1045 L 764 1045 L 760 1049 L 760 1050 L 759 1051 L 759 1052 L 758 1053 L 758 1054 L 757 1055 L 757 1064 L 758 1065 L 758 1067 L 759 1068 L 759 1069 L 760 1070 L 760 1071 L 761 1072 L 761 1073 L 762 1074 L 762 1075 L 763 1076 L 763 1077 L 764 1078 L 764 1079 L 765 1080 L 765 1081 L 766 1082 L 766 1083 L 767 1084 L 767 1085 L 768 1086 L 768 1087 L 769 1088 L 769 1089 L 770 1090 L 770 1091 L 771 1092 L 771 1093 L 772 1094 L 772 1095 L 773 1096 L 773 1097 L 774 1098 L 774 1099 L 775 1100 L 775 1101 L 777 1103 L 777 1104 L 778 1105 L 778 1106 L 779 1107 L 779 1108 L 780 1109 L 780 1110 L 781 1111 L 781 1112 L 782 1113 L 782 1114 L 783 1115 L 783 1116 L 784 1117 L 784 1118 L 785 1119 L 785 1120 L 786 1121 L 786 1122 L 787 1123 L 787 1124 L 788 1125 L 788 1126 L 789 1127 L 789 1128 L 790 1129 L 790 1130 L 791 1131 L 791 1132 L 792 1133 L 792 1134 L 793 1135 L 793 1136 L 794 1137 L 794 1138 L 795 1139 L 795 1140 L 796 1141 L 796 1142 L 797 1143 L 797 1144 L 798 1145 L 798 1146 L 799 1147 L 799 1148 L 800 1149 L 800 1150 L 801 1151 L 801 1152 L 802 1153 L 802 1154 L 803 1155 L 803 1156 L 804 1157 L 804 1158 L 805 1159 L 805 1160 L 807 1162 L 807 1163 L 812 1168 L 813 1168 L 814 1169 L 815 1169 L 816 1170 L 827 1170 L 828 1169 L 829 1169 L 830 1168 L 831 1168 L 832 1167 L 833 1167 L 834 1166 L 835 1166 L 836 1165 L 837 1165 L 838 1164 L 839 1164 L 840 1163 L 841 1163 L 842 1162 L 843 1162 L 844 1161 L 845 1161 L 846 1160 L 847 1160 L 848 1159 L 849 1159 L 850 1158 L 851 1158 L 852 1157 L 853 1157 L 854 1156 L 855 1156 L 856 1155 L 857 1155 L 858 1154 L 859 1154 L 860 1153 L 861 1153 L 862 1152 L 863 1152 L 864 1151 L 865 1151 L 866 1150 L 867 1150 L 868 1149 L 869 1149 L 870 1148 L 871 1148 L 872 1147 L 873 1147 L 874 1146 L 875 1146 L 876 1145 L 877 1145 L 878 1144 L 879 1144 L 880 1143 L 881 1143 L 883 1141 L 884 1141 L 885 1140 L 886 1140 L 887 1139 L 888 1139 L 889 1138 L 890 1138 L 891 1137 L 892 1137 L 893 1136 L 894 1136 L 895 1135 L 896 1135 L 897 1134 L 898 1134 L 899 1133 L 900 1133 L 901 1132 L 902 1132 L 903 1131 L 904 1131 L 905 1130 L 906 1130 L 907 1129 L 908 1129 L 909 1128 L 910 1128 L 911 1127 L 912 1127 L 913 1126 L 914 1126 L 915 1125 L 916 1125 L 917 1124 L 918 1124 L 919 1123 L 920 1123 L 921 1122 L 922 1122 L 923 1121 L 924 1121 L 930 1115 L 930 1114 L 931 1113 L 931 1111 L 932 1110 L 932 1101 L 931 1100 L 931 1098 L 930 1097 L 930 1096 L 929 1095 L 929 1094 L 928 1093 L 928 1092 L 927 1091 L 927 1090 L 926 1089 L 926 1088 L 925 1087 L 925 1086 L 924 1085 L 924 1084 L 923 1083 L 923 1082 L 921 1080 L 921 1079 L 920 1078 L 920 1077 L 919 1076 L 919 1075 L 918 1074 L 918 1073 L 917 1072 L 917 1071 L 916 1070 L 916 1069 L 915 1068 L 915 1067 L 914 1066 L 914 1065 L 913 1064 L 913 1063 L 912 1062 L 912 1061 L 911 1060 L 911 1059 L 910 1058 L 910 1057 L 911 1056 L 912 1056 L 913 1055 L 914 1055 L 916 1053 L 917 1053 L 919 1051 L 920 1051 L 921 1050 L 922 1050 L 924 1048 L 925 1048 L 927 1046 L 928 1046 L 929 1045 L 930 1045 L 935 1040 L 935 1039 L 936 1038 L 936 1036 L 937 1035 L 937 1027 L 936 1026 L 936 1025 L 935 1024 L 935 1023 L 934 1022 L 934 1021 L 932 1019 L 932 1018 L 931 1017 L 931 1016 L 929 1014 L 929 1013 L 927 1011 L 927 1010 L 926 1009 L 926 1008 L 924 1006 L 924 1005 L 922 1003 L 922 1002 L 921 1001 L 921 1000 L 919 998 L 919 997 L 917 995 L 917 994 L 916 993 L 916 992 L 914 990 L 914 988 L 917 985 L 918 985 L 921 982 L 922 982 L 925 979 L 926 979 L 929 976 L 930 976 L 933 973 L 933 972 L 934 971 L 934 970 L 935 969 L 935 959 L 934 958 L 934 957 L 933 956 L 933 955 L 930 952 L 930 951 L 927 948 L 927 947 L 924 944 L 924 943 L 921 940 L 921 939 L 918 936 L 918 935 L 915 932 L 915 931 L 912 928 L 912 927 L 911 926 L 917 920 L 918 920 L 927 911 L 927 910 L 928 909 L 928 908 L 929 907 L 929 901 L 928 900 L 928 898 L 927 897 L 927 896 L 919 888 L 919 887 L 910 878 L 910 877 L 904 871 L 904 870 L 915 859 L 915 858 L 917 856 L 917 855 L 918 854 L 918 846 L 917 845 L 917 844 L 905 832 L 904 832 L 893 821 L 896 818 L 896 817 L 900 813 L 900 812 L 903 809 L 903 808 L 904 807 L 904 799 L 903 798 L 903 797 L 898 792 L 897 792 L 894 789 L 893 789 L 889 785 L 888 785 L 884 781 L 883 781 L 880 778 L 880 777 L 882 775 L 882 774 L 883 773 L 883 772 L 885 770 L 885 769 L 887 767 L 887 766 L 888 765 L 888 758 L 887 757 L 887 756 L 884 753 L 883 753 L 881 751 L 880 751 L 878 749 L 877 749 L 875 747 L 874 747 L 872 745 L 871 745 L 869 743 L 868 743 L 867 742 L 866 742 L 864 740 L 865 739 L 865 738 L 866 737 L 866 736 L 867 735 L 867 734 L 868 733 L 868 732 L 870 730 L 870 728 L 871 727 L 871 724 L 870 723 L 870 721 L 867 718 L 866 718 L 865 717 L 864 717 L 863 716 L 862 716 L 860 714 L 859 714 L 858 713 L 857 713 L 856 712 L 855 712 L 854 711 L 853 711 L 852 710 L 851 710 L 850 709 L 849 709 L 847 707 L 848 706 L 848 705 L 849 704 L 849 703 L 850 702 L 850 700 L 851 699 L 851 698 L 852 697 L 852 692 L 851 691 L 851 690 L 849 688 L 848 688 L 847 687 L 846 687 L 845 686 L 844 686 L 843 685 L 841 685 L 840 684 L 839 684 L 838 683 L 836 683 L 835 682 L 834 682 L 833 681 L 832 681 L 830 679 L 830 677 L 831 676 L 831 674 L 832 673 L 832 671 L 833 670 L 833 666 L 832 665 L 832 664 L 830 662 L 828 662 L 827 661 L 825 661 L 824 660 L 822 660 L 821 659 L 819 659 L 818 658 L 816 658 L 815 657 L 813 657 L 812 656 L 812 652 L 813 651 L 813 647 L 814 646 L 814 645 L 813 644 L 813 643 L 812 642 L 812 641 L 811 641 L 810 640 L 808 640 L 807 639 L 803 639 L 802 638 L 799 638 L 798 637 L 795 637 L 794 636 L 794 629 L 795 628 L 795 627 L 794 626 L 794 624 L 793 623 L 792 623 L 791 622 L 786 622 L 785 621 L 779 621 L 778 620 L 777 620 L 776 619 L 776 610 L 774 608 L 772 608 L 771 607 L 759 607 L 758 606 L 758 598 L 756 596 L 743 596 L 742 595 L 742 591 L 741 590 L 741 588 L 740 587 L 737 587 L 736 586 L 736 584 L 735 583 L 735 581 L 734 580 L 734 577 L 735 576 L 737 576 L 738 575 L 739 575 L 740 574 L 741 574 L 742 573 L 744 575 L 744 577 L 745 578 L 745 579 L 746 580 L 746 581 L 747 582 L 747 583 L 748 584 L 754 584 L 755 583 L 757 583 L 758 582 L 759 582 L 760 581 L 761 581 L 762 582 L 762 583 L 763 584 L 763 587 L 764 588 L 764 590 L 765 591 L 765 592 L 767 594 L 774 594 L 775 593 L 778 593 L 779 592 L 781 592 L 782 593 L 782 595 L 783 596 L 783 600 L 784 601 L 784 604 L 787 607 L 789 607 L 790 608 L 791 608 L 792 607 L 796 607 L 797 606 L 801 606 L 802 605 L 803 606 L 803 611 L 804 612 L 804 619 L 805 620 L 805 621 L 807 623 L 808 623 L 809 624 L 816 624 L 817 623 L 824 623 L 825 624 L 825 638 L 826 639 L 826 640 L 827 641 L 827 642 L 828 643 L 829 643 L 830 644 L 846 644 L 847 645 L 847 663 L 848 664 L 848 665 L 851 668 L 853 668 L 854 669 L 868 669 L 870 671 L 870 676 L 869 677 L 869 683 L 868 684 L 868 691 L 869 692 L 869 693 L 870 694 L 870 695 L 871 696 L 872 696 L 873 697 L 874 697 L 875 698 L 879 698 L 880 699 L 886 699 L 887 700 L 892 700 L 893 701 L 893 704 L 892 705 L 892 708 L 891 709 L 891 713 L 890 714 L 890 717 L 889 718 L 889 725 L 890 726 L 890 727 L 891 728 L 891 729 L 892 730 L 893 730 L 895 732 L 897 732 L 898 733 L 901 733 L 902 734 L 905 734 L 906 735 L 910 735 L 911 736 L 914 736 L 915 737 L 915 740 L 914 741 L 914 744 L 913 745 L 913 747 L 912 748 L 912 750 L 911 751 L 911 753 L 910 754 L 910 756 L 909 757 L 909 764 L 910 765 L 910 767 L 915 772 L 916 772 L 917 773 L 919 773 L 920 774 L 922 774 L 923 775 L 925 775 L 926 776 L 928 776 L 929 777 L 931 777 L 932 778 L 934 778 L 935 779 L 936 779 L 937 780 L 936 781 L 936 783 L 935 784 L 935 785 L 934 786 L 934 787 L 933 788 L 933 790 L 932 791 L 932 792 L 931 793 L 931 794 L 930 795 L 930 797 L 929 798 L 929 799 L 928 800 L 928 802 L 927 803 L 927 809 L 928 810 L 928 812 L 929 813 L 929 814 L 933 818 L 934 818 L 935 819 L 936 819 L 937 820 L 938 820 L 939 821 L 940 821 L 941 822 L 943 822 L 944 823 L 945 823 L 946 824 L 947 824 L 948 825 L 950 825 L 951 826 L 952 826 L 953 827 L 955 827 L 956 828 L 956 830 L 955 831 L 955 832 L 954 833 L 954 834 L 953 835 L 953 836 L 951 838 L 951 839 L 950 840 L 950 841 L 949 842 L 949 843 L 948 844 L 948 845 L 947 846 L 947 847 L 946 848 L 946 849 L 945 850 L 945 851 L 944 852 L 944 853 L 943 854 L 943 862 L 944 863 L 944 865 L 945 866 L 945 867 L 950 872 L 951 872 L 952 873 L 953 873 L 954 874 L 955 874 L 957 876 L 958 876 L 959 877 L 960 877 L 961 878 L 962 878 L 963 879 L 964 879 L 965 880 L 966 880 L 967 881 L 968 881 L 969 882 L 970 882 L 973 885 L 972 886 L 972 887 L 971 888 L 971 889 L 969 891 L 969 892 L 967 894 L 967 895 L 965 897 L 965 898 L 963 900 L 963 901 L 961 903 L 961 904 L 959 906 L 959 907 L 958 908 L 958 909 L 957 910 L 957 911 L 956 912 L 956 915 L 955 916 L 955 920 L 956 921 L 956 924 L 957 925 L 957 926 L 958 927 L 958 928 L 963 933 L 964 933 L 966 935 L 967 935 L 968 936 L 969 936 L 971 938 L 972 938 L 974 940 L 975 940 L 977 942 L 978 942 L 980 944 L 981 944 L 983 946 L 984 946 L 986 948 L 987 948 L 989 950 L 990 950 L 991 951 L 992 951 L 994 953 L 995 953 L 997 955 L 998 955 L 1000 957 L 1001 957 L 1003 959 L 1004 959 L 1006 961 L 1007 961 L 1009 963 L 1010 963 L 1012 965 L 1013 965 L 1014 966 L 1015 966 L 1017 968 L 1018 968 L 1020 970 L 1021 970 L 1023 972 L 1024 972 L 1026 974 L 1027 974 L 1029 976 L 1030 976 L 1032 978 L 1033 978 L 1034 979 L 1035 979 L 1037 981 L 1038 981 L 1040 983 L 1041 983 L 1043 985 L 1044 985 L 1046 987 L 1047 987 L 1049 989 L 1050 989 L 1051 990 L 1052 990 L 1053 991 L 1054 991 L 1055 992 L 1065 992 L 1066 991 L 1068 991 L 1069 990 L 1070 990 L 1075 985 L 1075 984 L 1077 982 L 1077 981 L 1079 979 L 1079 978 L 1081 976 L 1081 975 L 1083 973 L 1083 972 L 1085 970 L 1085 969 L 1087 967 L 1087 966 L 1088 965 L 1088 964 L 1090 962 L 1090 961 L 1092 959 L 1092 958 L 1094 956 L 1094 955 L 1096 953 L 1096 952 L 1098 950 L 1098 949 L 1100 947 L 1100 946 L 1101 945 L 1101 944 L 1103 942 L 1103 941 L 1105 939 L 1105 938 L 1107 936 L 1107 935 L 1109 933 L 1109 932 L 1111 930 L 1111 929 L 1113 927 L 1113 926 L 1115 924 L 1115 923 L 1116 922 L 1116 921 L 1118 919 L 1118 918 L 1120 916 L 1120 915 L 1122 913 L 1122 912 L 1124 910 L 1124 909 L 1126 907 L 1126 906 L 1128 904 L 1128 903 L 1130 901 L 1130 900 L 1131 899 L 1131 898 L 1133 896 L 1133 895 L 1134 894 L 1134 891 L 1135 890 L 1135 885 L 1134 884 L 1134 881 L 1133 880 L 1133 879 L 1132 878 L 1132 877 L 1128 873 L 1127 873 L 1125 871 L 1124 871 L 1122 869 L 1121 869 L 1119 867 L 1118 867 L 1116 865 L 1115 865 L 1113 863 L 1112 863 L 1111 862 L 1110 862 L 1108 860 L 1107 860 L 1105 858 L 1104 858 L 1102 856 L 1101 856 L 1099 854 L 1098 854 L 1096 852 L 1095 852 L 1093 850 L 1092 850 L 1091 849 L 1090 849 L 1089 848 L 1089 847 L 1090 846 L 1090 845 L 1091 844 L 1091 843 L 1092 842 L 1092 841 L 1093 840 L 1093 839 L 1095 837 L 1095 836 L 1096 835 L 1096 834 L 1097 833 L 1097 832 L 1098 831 L 1098 830 L 1099 829 L 1099 828 L 1100 827 L 1100 826 L 1101 825 L 1101 814 L 1100 813 L 1100 812 L 1098 810 L 1098 809 L 1096 807 L 1095 807 L 1094 806 L 1093 806 L 1091 804 L 1090 804 L 1089 803 L 1088 803 L 1087 802 L 1086 802 L 1085 801 L 1084 801 L 1083 800 L 1082 800 L 1081 799 L 1080 799 L 1079 798 L 1078 798 L 1076 796 L 1075 796 L 1074 795 L 1073 795 L 1072 794 L 1071 794 L 1070 793 L 1069 793 L 1068 792 L 1067 792 L 1066 791 L 1065 791 L 1064 790 L 1063 790 L 1061 788 L 1060 788 L 1059 787 L 1058 787 L 1057 786 L 1058 785 L 1058 784 L 1059 783 L 1059 781 L 1060 780 L 1060 779 L 1061 778 L 1061 777 L 1062 776 L 1062 774 L 1063 773 L 1063 772 L 1064 771 L 1064 770 L 1065 769 L 1065 767 L 1066 766 L 1066 757 L 1065 756 L 1065 755 L 1064 754 L 1064 753 L 1060 749 L 1059 749 L 1058 748 L 1056 748 L 1055 747 L 1054 747 L 1053 746 L 1052 746 L 1051 745 L 1049 745 L 1048 744 L 1047 744 L 1046 743 L 1045 743 L 1044 742 L 1042 742 L 1041 741 L 1040 741 L 1039 740 L 1038 740 L 1037 739 L 1035 739 L 1034 738 L 1033 738 L 1032 737 L 1031 737 L 1030 736 L 1028 736 L 1027 735 L 1026 735 L 1024 733 L 1025 732 L 1025 730 L 1026 729 L 1026 726 L 1027 725 L 1027 723 L 1028 722 L 1028 720 L 1029 719 L 1029 717 L 1030 716 L 1030 708 L 1029 707 L 1029 705 L 1025 701 L 1024 701 L 1023 700 L 1022 700 L 1021 699 L 1018 699 L 1017 698 L 1015 698 L 1014 697 L 1012 697 L 1011 696 L 1009 696 L 1008 695 L 1006 695 L 1005 694 L 1003 694 L 1002 693 L 1000 693 L 999 692 L 997 692 L 996 691 L 994 691 L 993 690 L 991 690 L 990 689 L 990 688 L 991 687 L 991 683 L 992 682 L 992 679 L 993 678 L 993 675 L 994 674 L 994 667 L 993 666 L 993 664 L 989 660 L 988 660 L 987 659 L 984 659 L 983 658 L 980 658 L 979 657 L 975 657 L 974 656 L 971 656 L 970 655 L 967 655 L 966 654 L 962 654 L 961 653 L 958 653 L 956 651 L 956 650 L 957 649 L 957 643 L 958 642 L 958 632 L 957 631 L 957 630 L 956 629 L 956 628 L 955 628 L 953 626 L 951 626 L 950 625 L 945 625 L 944 624 L 938 624 L 937 623 L 931 623 L 930 622 L 924 622 L 923 621 L 923 608 L 924 607 L 923 606 L 923 603 L 922 602 L 922 601 L 921 600 L 920 600 L 918 598 L 909 598 L 908 597 L 892 597 L 890 595 L 890 581 L 889 580 L 889 579 L 887 577 L 886 577 L 885 576 L 867 576 L 866 577 L 861 577 L 860 576 L 860 575 L 859 574 L 859 567 L 858 566 L 858 563 L 854 559 L 846 559 L 845 560 L 838 560 L 837 561 L 831 561 L 830 560 L 830 557 L 829 556 L 829 552 L 828 551 L 828 549 L 826 547 L 825 547 L 824 546 L 819 546 L 818 547 L 814 547 L 813 548 L 810 548 L 809 549 L 805 549 L 804 550 L 803 549 L 803 548 L 802 547 L 802 545 L 801 544 L 801 542 L 800 541 L 800 539 L 799 538 L 798 538 L 797 537 L 792 537 L 791 538 L 788 538 L 787 539 L 785 539 L 784 540 L 782 540 L 781 541 L 778 541 L 777 540 L 777 539 L 776 538 L 776 537 L 775 536 L 775 534 L 772 531 L 766 531 L 765 532 L 764 532 L 763 533 L 761 533 L 760 534 L 759 534 L 758 535 L 756 535 L 755 536 L 753 534 L 753 533 L 752 532 L 752 531 L 751 530 L 751 529 L 750 528 L 749 528 L 748 527 L 745 527 L 744 528 L 743 528 L 742 529 L 741 529 L 740 530 L 739 530 L 738 531 L 737 531 L 736 532 L 735 532 L 734 533 L 733 533 L 731 531 L 731 530 L 729 528 L 729 527 L 728 526 L 723 526 L 722 527 L 721 527 L 719 529 L 718 529 L 716 531 L 715 531 L 714 532 L 713 532 L 712 531 L 712 530 L 708 526 L 705 526 L 704 527 L 703 527 L 696 520 L 699 517 L 699 516 L 701 514 L 701 513 L 702 512 L 704 514 L 705 514 L 709 518 L 715 518 L 720 513 L 720 512 L 722 510 L 723 510 L 730 517 L 731 517 L 732 518 L 735 518 L 736 517 L 737 517 L 745 509 L 748 512 L 748 513 L 753 518 L 754 518 L 755 519 L 760 519 L 761 518 L 762 518 L 769 511 L 770 511 L 773 514 L 773 515 L 776 518 L 776 519 L 779 522 L 780 522 L 781 523 L 786 523 L 787 522 L 788 522 L 791 519 L 792 519 L 795 516 L 796 516 L 797 515 L 798 515 L 799 516 L 799 517 L 801 519 L 801 520 L 803 522 L 803 523 L 804 524 L 804 525 L 808 529 L 810 529 L 811 530 L 813 530 L 814 529 L 816 529 L 817 528 L 818 528 L 820 526 L 821 526 L 822 525 L 823 525 L 825 523 L 826 523 L 827 522 L 828 522 L 829 523 L 829 524 L 830 525 L 830 526 L 831 527 L 831 528 L 832 529 L 832 530 L 833 531 L 833 532 L 834 533 L 834 534 L 836 536 L 836 537 L 837 538 L 838 538 L 839 539 L 840 539 L 841 540 L 845 540 L 846 539 L 848 539 L 849 538 L 850 538 L 851 537 L 852 537 L 853 536 L 854 536 L 855 535 L 856 535 L 857 534 L 858 534 L 859 533 L 861 533 L 862 534 L 862 536 L 863 537 L 863 538 L 864 539 L 864 541 L 865 542 L 865 543 L 866 544 L 866 546 L 867 547 L 867 548 L 868 549 L 868 550 L 871 553 L 872 553 L 873 554 L 880 554 L 881 553 L 883 553 L 884 552 L 885 552 L 886 551 L 888 551 L 889 550 L 890 550 L 891 549 L 893 549 L 894 548 L 896 548 L 897 549 L 897 551 L 898 552 L 898 554 L 899 555 L 899 557 L 900 558 L 900 561 L 901 562 L 901 564 L 902 565 L 902 567 L 904 569 L 904 570 L 905 571 L 906 571 L 907 572 L 908 572 L 909 573 L 917 573 L 918 572 L 920 572 L 921 571 L 923 571 L 924 570 L 927 570 L 928 569 L 930 569 L 931 568 L 933 568 L 934 569 L 934 570 L 935 571 L 935 574 L 936 575 L 936 579 L 937 580 L 937 584 L 938 585 L 938 588 L 939 589 L 939 591 L 940 592 L 940 593 L 943 596 L 944 596 L 945 597 L 947 597 L 948 598 L 954 598 L 955 597 L 959 597 L 960 596 L 963 596 L 964 595 L 968 595 L 969 594 L 973 594 L 974 595 L 974 600 L 975 601 L 975 608 L 976 609 L 976 616 L 977 617 L 977 620 L 978 621 L 978 622 L 979 623 L 979 624 L 981 626 L 982 626 L 983 627 L 984 627 L 985 628 L 987 628 L 988 629 L 994 629 L 995 628 L 1002 628 L 1003 627 L 1011 627 L 1012 626 L 1014 626 L 1015 627 L 1015 636 L 1016 637 L 1016 655 L 1017 656 L 1017 658 L 1018 659 L 1018 660 L 1023 665 L 1024 665 L 1025 666 L 1027 666 L 1028 667 L 1046 667 L 1047 666 L 1057 666 L 1058 667 L 1058 672 L 1057 673 L 1057 691 L 1056 692 L 1056 698 L 1057 699 L 1057 702 L 1058 703 L 1058 704 L 1059 705 L 1059 706 L 1064 711 L 1065 711 L 1066 712 L 1068 712 L 1069 713 L 1079 713 L 1080 714 L 1097 714 L 1098 715 L 1116 715 L 1117 716 L 1134 716 L 1135 717 L 1153 717 L 1154 718 L 1172 718 L 1173 719 L 1181 719 L 1182 718 L 1185 718 L 1186 717 L 1187 717 L 1193 711 L 1193 710 L 1194 709 L 1194 708 L 1195 707 L 1195 701 L 1196 700 L 1196 682 L 1197 681 L 1197 664 L 1198 663 L 1198 645 L 1199 644 L 1199 626 L 1200 625 L 1200 608 L 1201 607 L 1201 593 L 1200 592 L 1200 590 L 1199 589 L 1199 588 L 1197 586 L 1197 585 L 1196 584 L 1195 584 L 1193 582 L 1192 582 L 1191 581 L 1190 581 L 1189 580 L 1182 580 L 1181 579 L 1163 579 L 1162 578 L 1144 578 L 1143 577 L 1140 577 L 1139 576 L 1139 565 L 1138 564 L 1138 550 L 1137 549 L 1137 547 L 1135 545 L 1135 544 L 1132 541 L 1131 541 L 1130 540 L 1129 540 L 1128 539 L 1094 539 L 1093 540 L 1082 540 L 1081 539 L 1081 537 L 1080 536 L 1080 529 L 1079 528 L 1079 521 L 1078 520 L 1078 516 L 1077 515 L 1077 514 L 1076 513 L 1076 512 L 1072 508 L 1071 508 L 1070 507 L 1066 507 L 1065 506 L 1063 506 L 1062 507 L 1055 507 L 1054 508 L 1047 508 L 1046 509 L 1039 509 L 1038 510 L 1030 510 L 1029 511 L 1027 511 L 1026 510 L 1026 509 L 1025 508 L 1025 505 L 1024 504 L 1024 500 L 1023 499 L 1023 495 L 1022 494 L 1022 491 L 1021 490 L 1021 489 L 1020 488 L 1020 487 L 1017 484 L 1016 484 L 1015 483 L 1013 483 L 1012 482 L 1007 482 L 1006 483 L 1002 483 L 1001 484 L 998 484 L 997 485 L 993 485 L 992 486 L 988 486 L 987 487 L 983 487 L 982 488 L 979 488 L 978 489 L 975 489 L 974 488 L 974 487 L 973 486 L 973 484 L 972 483 L 972 480 L 971 479 L 971 477 L 970 476 L 970 474 L 969 473 L 969 471 L 968 470 L 968 469 L 966 467 L 965 467 L 964 466 L 963 466 L 962 465 L 955 465 L 954 466 L 951 466 L 950 467 L 948 467 L 947 468 L 945 468 L 944 469 L 942 469 L 941 470 L 938 470 L 937 471 L 935 471 L 934 472 L 932 472 L 931 473 L 928 473 L 927 474 L 926 473 L 926 472 L 925 471 L 925 469 L 924 468 L 924 467 L 923 466 L 923 465 L 922 464 L 922 462 L 921 461 L 921 460 L 920 459 L 920 458 L 916 454 L 914 454 L 913 453 L 909 453 L 908 454 L 906 454 L 905 455 L 904 455 L 903 456 L 901 456 L 900 457 L 899 457 L 898 458 L 896 458 L 895 459 L 894 459 L 893 460 L 891 460 L 890 461 L 889 461 L 888 462 L 886 462 L 885 463 L 884 463 L 883 464 L 881 462 L 881 461 L 880 460 L 880 459 L 879 458 L 879 457 L 878 456 L 878 455 L 877 454 L 877 453 L 876 452 L 876 451 L 873 448 L 872 448 L 871 447 L 864 447 L 863 448 L 862 448 L 861 449 L 860 449 L 859 450 L 858 450 L 857 451 L 856 451 L 855 452 L 854 452 L 853 453 L 852 453 L 851 454 L 850 454 L 849 455 L 848 455 L 847 456 L 846 456 L 845 457 L 844 457 L 843 458 L 842 458 L 840 456 L 840 455 L 839 454 L 839 453 L 837 451 L 837 450 L 835 448 L 835 447 L 833 445 L 832 445 L 831 444 L 826 444 L 825 445 L 823 445 L 821 447 L 820 447 L 818 449 L 817 449 L 816 450 L 815 450 L 813 452 L 812 452 L 810 454 L 809 454 L 808 455 L 807 455 L 806 456 L 805 456 L 803 454 L 803 453 L 800 450 L 800 449 L 797 446 L 796 446 L 795 445 L 789 445 L 787 447 L 786 447 L 783 450 L 782 450 L 779 453 L 778 453 L 775 456 L 774 456 L 773 457 L 772 457 L 764 449 L 762 449 L 761 448 L 759 448 L 758 449 L 757 449 L 756 450 L 755 450 L 746 459 L 745 459 L 743 461 L 742 461 L 736 455 L 735 455 L 734 454 L 730 454 L 729 455 L 728 455 L 720 463 L 720 464 L 717 467 L 716 467 L 713 464 L 712 464 L 710 462 L 709 462 L 708 461 L 706 461 L 705 462 L 703 462 L 702 463 L 702 464 L 699 467 L 699 468 L 695 472 L 695 473 L 694 474 L 693 474 L 692 473 L 691 473 L 689 471 L 688 471 L 687 470 L 682 470 L 680 472 L 680 473 L 678 475 L 678 476 L 676 478 L 676 479 L 675 480 L 675 481 L 674 482 L 672 482 L 671 481 L 670 481 L 669 480 L 668 480 L 667 479 L 664 479 L 661 482 L 661 483 L 660 484 L 660 485 L 659 486 L 659 487 L 658 488 L 658 489 L 656 491 L 654 491 L 653 490 L 651 490 L 650 489 L 648 489 L 647 490 L 646 490 L 646 491 L 645 492 L 643 492 L 642 491 L 639 491 L 638 490 L 636 490 L 635 489 L 635 488 L 636 487 L 636 481 L 637 480 L 643 480 L 644 481 L 647 481 L 648 480 L 649 480 L 651 478 L 651 474 L 652 473 L 652 468 L 653 467 L 654 468 L 657 468 L 658 469 L 661 469 L 662 470 L 664 470 L 665 469 L 667 469 L 669 467 L 669 465 L 670 464 L 670 461 L 671 460 L 671 457 L 672 456 L 675 456 L 676 457 L 678 457 L 679 458 L 681 458 L 682 459 L 687 459 L 688 458 L 689 458 L 690 457 L 690 456 L 691 455 L 691 453 L 692 452 L 692 450 L 693 449 L 693 447 L 694 446 L 694 445 L 695 444 L 696 445 L 697 445 L 698 446 L 699 446 L 700 447 L 702 447 L 703 448 L 704 448 L 705 449 L 712 449 L 715 446 L 715 445 L 716 444 L 716 443 L 717 442 L 717 441 L 718 440 L 718 438 L 719 437 L 719 436 L 721 434 L 722 435 L 723 435 L 724 436 L 725 436 L 726 437 L 727 437 L 728 438 L 729 438 L 730 439 L 731 439 L 732 440 L 733 440 L 734 441 L 739 441 L 740 440 L 741 440 L 744 437 L 744 436 L 745 435 L 745 434 L 746 433 L 746 432 L 747 431 L 747 430 L 748 429 L 748 428 L 749 427 L 749 426 L 750 425 L 751 425 L 753 427 L 754 427 L 756 429 L 757 429 L 759 431 L 760 431 L 762 433 L 763 433 L 764 434 L 772 434 L 777 429 L 777 428 L 779 426 L 779 425 L 781 423 L 781 422 L 783 420 L 783 419 L 784 418 L 785 419 L 786 419 L 790 423 L 791 423 L 794 426 L 795 426 L 798 429 L 799 429 L 800 430 L 807 430 L 808 429 L 809 429 L 815 423 L 815 422 L 818 419 L 818 418 L 822 414 L 823 414 L 832 423 L 833 423 L 838 428 L 840 428 L 841 429 L 846 429 L 847 428 L 849 428 L 850 427 L 851 427 L 855 423 L 855 422 L 865 412 L 867 414 L 867 415 L 876 424 L 876 425 L 880 429 L 881 429 L 882 430 L 883 430 L 884 431 L 893 431 L 894 430 L 895 430 L 898 427 L 899 427 L 908 418 L 909 418 L 912 415 L 915 418 L 915 419 L 918 422 L 918 423 L 921 426 L 921 427 L 924 430 L 924 431 L 930 437 L 931 437 L 932 438 L 943 438 L 944 437 L 945 437 L 948 434 L 949 434 L 952 431 L 953 431 L 956 428 L 957 428 L 960 425 L 961 425 L 964 422 L 966 424 L 966 425 L 967 426 L 967 427 L 969 429 L 969 430 L 971 432 L 971 433 L 972 434 L 972 435 L 974 437 L 974 438 L 976 440 L 976 441 L 977 442 L 977 443 L 979 445 L 979 446 L 981 448 L 982 448 L 983 449 L 984 449 L 985 450 L 986 450 L 987 451 L 996 451 L 997 450 L 998 450 L 999 449 L 1000 449 L 1001 448 L 1002 448 L 1004 446 L 1005 446 L 1006 445 L 1007 445 L 1009 443 L 1010 443 L 1012 441 L 1013 441 L 1014 440 L 1015 440 L 1017 438 L 1018 438 L 1020 436 L 1021 436 L 1023 438 L 1023 439 L 1024 440 L 1024 441 L 1025 442 L 1025 443 L 1026 444 L 1026 445 L 1027 446 L 1027 447 L 1028 448 L 1028 449 L 1029 450 L 1029 451 L 1030 452 L 1030 453 L 1031 454 L 1031 455 L 1032 456 L 1032 457 L 1033 458 L 1033 459 L 1034 460 L 1034 461 L 1036 463 L 1036 464 L 1039 467 L 1040 467 L 1042 469 L 1044 469 L 1045 470 L 1055 470 L 1056 469 L 1058 469 L 1059 468 L 1060 468 L 1061 467 L 1062 467 L 1063 466 L 1064 466 L 1065 465 L 1066 465 L 1067 464 L 1068 464 L 1069 463 L 1070 463 L 1071 462 L 1072 462 L 1073 461 L 1074 461 L 1075 460 L 1076 460 L 1077 459 L 1078 459 L 1079 458 L 1080 458 L 1082 456 L 1083 456 L 1084 455 L 1085 455 L 1086 454 L 1087 454 L 1088 453 L 1089 453 L 1090 452 L 1091 452 L 1092 451 L 1093 451 L 1094 450 L 1095 450 L 1096 449 L 1097 449 L 1098 448 L 1099 448 L 1100 447 L 1101 447 L 1102 446 L 1103 446 L 1104 445 L 1105 445 L 1106 444 L 1107 444 L 1108 443 L 1109 443 L 1110 442 L 1111 442 L 1112 441 L 1113 441 L 1114 440 L 1115 440 L 1116 439 L 1117 439 L 1118 438 L 1119 438 L 1120 437 L 1121 437 L 1122 436 L 1123 436 L 1124 435 L 1125 435 L 1126 434 L 1127 434 L 1128 433 L 1129 433 L 1130 432 L 1131 432 L 1132 431 L 1133 431 L 1134 430 L 1135 430 L 1136 429 L 1137 429 L 1138 428 L 1139 428 L 1140 427 L 1141 427 L 1142 426 L 1143 426 L 1145 424 L 1146 424 L 1147 423 L 1148 423 L 1149 422 L 1150 422 L 1151 421 L 1152 421 L 1153 420 L 1154 420 L 1158 416 L 1158 415 L 1159 414 L 1159 413 L 1160 412 L 1160 408 L 1161 407 L 1161 404 L 1160 403 L 1160 400 L 1159 399 L 1159 397 L 1158 396 L 1158 395 L 1157 394 L 1157 393 L 1155 391 L 1155 390 L 1154 389 L 1154 388 L 1153 387 L 1153 386 L 1152 385 L 1152 384 L 1151 383 L 1151 382 L 1150 381 L 1150 380 L 1149 379 L 1149 378 L 1148 377 L 1148 376 L 1147 375 L 1147 374 L 1146 373 L 1146 372 L 1145 371 L 1145 370 L 1144 369 L 1144 368 L 1143 367 L 1143 366 L 1142 365 L 1142 364 L 1141 363 L 1141 362 L 1140 361 L 1140 360 L 1139 359 L 1139 358 L 1138 357 L 1138 356 L 1137 355 L 1137 354 L 1136 353 L 1136 352 L 1135 351 L 1135 350 L 1134 349 L 1134 348 L 1133 347 L 1133 346 L 1132 345 L 1132 344 L 1131 343 L 1131 342 L 1130 341 L 1130 340 L 1129 339 L 1129 338 L 1128 337 L 1128 336 L 1127 335 L 1127 334 L 1126 333 L 1126 332 L 1125 331 L 1125 330 L 1124 329 L 1124 328 L 1122 326 L 1122 325 L 1121 324 L 1121 323 L 1120 322 L 1120 321 L 1119 320 L 1119 319 L 1118 318 L 1118 317 L 1117 316 L 1117 315 L 1116 314 L 1116 313 L 1115 312 L 1115 311 L 1114 310 L 1114 309 L 1113 308 L 1113 307 L 1112 306 L 1112 305 L 1111 304 L 1111 303 L 1105 297 L 1104 297 L 1103 296 L 1100 296 L 1099 295 L 1092 295 L 1091 296 L 1089 296 L 1088 297 L 1087 297 L 1086 298 L 1085 298 L 1084 299 L 1083 299 L 1082 300 L 1081 300 L 1080 301 L 1079 301 L 1078 302 L 1077 302 L 1076 303 L 1075 303 L 1074 304 L 1073 304 L 1072 305 L 1071 305 L 1070 306 L 1069 306 L 1068 307 L 1067 307 L 1066 308 L 1065 308 L 1064 309 L 1063 309 L 1062 310 L 1061 310 L 1059 312 L 1058 312 L 1057 313 L 1056 313 L 1055 314 L 1054 314 L 1053 315 L 1052 315 L 1051 316 L 1050 316 L 1049 317 L 1048 317 L 1045 314 L 1045 313 L 1043 311 L 1043 310 L 1042 309 L 1042 308 L 1040 306 L 1040 305 L 1038 303 L 1038 302 L 1037 301 L 1037 300 L 1035 298 L 1035 297 L 1031 293 L 1030 293 L 1029 292 L 1028 292 L 1027 291 L 1025 291 L 1024 290 L 1019 290 L 1018 291 L 1016 291 L 1015 292 L 1014 292 L 1013 293 L 1012 293 L 1011 294 L 1010 294 L 1008 296 L 1007 296 L 1006 297 L 1005 297 L 1003 299 L 1002 299 L 1000 301 L 999 301 L 998 302 L 997 302 L 995 304 L 994 304 L 992 306 L 991 306 L 990 307 L 989 307 L 987 309 L 986 309 L 984 311 L 983 311 L 982 312 L 981 312 L 979 314 L 975 310 L 975 309 L 972 306 L 972 305 L 969 302 L 969 301 L 966 298 L 966 297 L 963 294 L 962 294 L 961 293 L 960 293 L 959 292 L 950 292 L 949 293 L 948 293 L 947 294 L 946 294 L 944 296 L 943 296 L 940 299 L 939 299 L 936 302 L 935 302 L 932 305 L 931 305 L 928 308 L 927 308 L 924 311 L 923 311 L 920 314 L 919 314 L 917 316 L 916 316 L 911 311 L 911 310 L 901 300 L 900 300 L 899 299 L 896 299 L 895 298 L 893 298 L 892 299 L 889 299 L 888 300 L 887 300 L 883 304 L 882 304 L 873 313 L 872 313 L 863 322 L 862 322 L 861 323 L 860 323 L 849 312 L 848 312 L 846 310 L 844 310 L 843 309 L 838 309 L 837 310 L 835 310 L 834 311 L 833 311 L 830 314 L 830 315 L 816 329 L 816 330 L 812 334 L 811 334 L 808 331 L 807 331 L 804 328 L 803 328 L 799 324 L 797 324 L 796 323 L 790 323 L 789 324 L 788 324 L 787 325 L 786 325 L 785 326 L 785 327 L 781 331 L 781 332 L 777 336 L 777 337 L 774 340 L 774 341 L 770 345 L 770 346 L 768 348 L 766 346 L 765 346 L 763 344 L 762 344 L 760 342 L 759 342 L 757 340 L 756 340 L 755 339 L 749 339 L 748 340 L 747 340 L 746 341 L 745 341 L 744 342 L 744 343 L 742 345 L 742 346 L 740 348 L 740 349 L 739 350 L 739 351 L 737 353 L 737 354 L 735 356 L 735 357 L 733 359 L 733 360 L 730 363 L 729 362 L 728 362 L 727 361 L 726 361 L 725 360 L 724 360 L 723 359 L 722 359 L 721 358 L 720 358 L 719 357 L 712 357 L 711 358 L 710 358 L 709 359 L 709 360 L 708 361 L 708 362 L 707 363 L 707 364 L 705 366 L 705 367 L 704 368 L 704 369 L 703 370 L 703 371 L 702 372 L 702 373 L 701 374 L 701 375 L 700 376 L 700 377 L 699 378 L 699 379 L 698 380 L 697 380 L 696 379 L 695 379 L 694 378 L 692 378 L 691 377 L 690 377 L 689 376 L 687 376 L 686 375 L 683 375 L 682 376 L 681 376 L 680 377 L 679 377 L 679 378 L 678 379 L 678 380 L 677 381 L 677 382 L 676 383 L 676 384 L 675 385 L 675 387 L 674 388 L 674 389 L 673 390 L 673 391 L 672 392 L 672 394 L 671 395 L 671 396 L 670 397 L 667 397 L 666 396 L 664 396 L 663 395 L 660 395 L 659 394 L 658 394 L 657 395 L 655 395 L 652 398 L 652 400 L 651 401 L 651 403 L 650 404 L 650 406 L 649 407 L 649 409 L 648 410 L 648 412 L 647 413 L 647 415 L 646 416 L 645 416 L 644 415 L 641 415 L 640 414 L 633 414 L 631 416 L 631 417 L 630 418 L 630 421 L 629 422 L 629 425 L 628 426 L 628 430 L 627 431 L 627 433 L 626 434 L 624 434 L 623 433 L 615 433 L 613 435 L 613 436 L 612 437 L 612 443 L 611 444 L 611 450 L 609 452 L 608 451 L 601 451 L 600 452 L 599 452 L 599 453 L 598 454 L 598 461 L 597 462 L 597 468 L 596 469 L 589 469 L 588 470 L 587 470 L 587 471 L 586 472 L 586 483 L 587 484 L 586 485 L 584 485 L 583 486 L 579 486 L 577 488 L 577 490 L 575 492 L 572 492 L 571 493 L 569 493 L 568 494 L 567 493 L 567 492 L 566 491 L 566 490 L 565 489 L 565 488 L 564 487 L 564 486 L 563 485 L 564 484 L 565 484 L 566 483 L 568 483 L 569 482 L 570 482 L 571 481 L 572 481 L 574 479 L 574 478 L 575 477 L 575 475 L 574 474 L 574 472 L 573 471 L 573 470 L 572 469 L 572 467 L 571 466 L 572 465 L 575 465 L 576 464 L 578 464 L 579 463 L 581 463 L 582 462 L 583 462 L 584 461 L 584 460 L 585 459 L 585 455 L 584 454 L 584 452 L 583 451 L 583 449 L 582 448 L 582 446 L 583 445 L 587 445 L 588 444 L 592 444 L 593 443 L 595 443 L 597 441 L 597 440 L 598 439 L 598 435 L 597 434 L 597 430 L 596 429 L 596 425 L 597 424 L 604 424 L 605 423 L 610 423 L 614 419 L 614 409 L 613 408 L 613 403 L 614 402 L 629 402 L 630 401 L 631 401 L 634 398 L 634 395 L 635 394 L 635 393 L 634 392 L 634 381 L 635 380 L 646 380 L 647 381 L 652 381 L 653 380 L 654 380 L 655 379 L 656 379 L 658 377 L 658 376 L 659 375 L 659 365 L 660 364 L 660 358 L 661 357 L 664 357 L 665 358 L 671 358 L 672 359 L 682 359 L 683 358 L 684 358 L 687 355 L 687 354 L 688 353 L 688 350 L 689 349 L 689 343 L 690 342 L 690 336 L 692 334 L 693 334 L 694 335 L 697 335 L 698 336 L 702 336 L 703 337 L 706 337 L 707 338 L 716 338 L 717 337 L 718 337 L 722 333 L 722 331 L 723 330 L 723 327 L 724 326 L 724 323 L 725 322 L 725 319 L 726 318 L 726 314 L 728 312 L 730 312 L 731 313 L 733 313 L 734 314 L 736 314 L 737 315 L 739 315 L 740 316 L 742 316 L 743 317 L 745 317 L 746 318 L 755 318 L 756 317 L 758 317 L 762 313 L 762 312 L 763 311 L 763 309 L 764 308 L 764 306 L 765 305 L 765 303 L 766 302 L 766 300 L 767 299 L 767 297 L 768 296 L 768 294 L 769 293 L 769 291 L 770 290 L 771 291 L 772 291 L 773 292 L 775 292 L 776 293 L 777 293 L 778 294 L 779 294 L 780 295 L 782 295 L 783 296 L 784 296 L 785 297 L 786 297 L 787 298 L 789 298 L 790 299 L 791 299 L 792 300 L 800 300 L 801 299 L 803 299 L 804 298 L 805 298 L 808 295 L 808 294 L 809 293 L 809 292 L 810 291 L 810 290 L 811 289 L 811 288 L 812 287 L 812 285 L 813 284 L 813 283 L 814 282 L 814 280 L 815 279 L 815 278 L 816 277 L 816 276 L 817 275 L 817 273 L 819 271 L 820 271 L 821 272 L 822 272 L 824 274 L 825 274 L 826 275 L 827 275 L 828 276 L 829 276 L 830 277 L 831 277 L 832 278 L 833 278 L 834 279 L 835 279 L 836 280 L 837 280 L 839 282 L 840 282 L 841 283 L 843 283 L 844 284 L 854 284 L 855 283 L 856 283 L 857 282 L 858 282 L 862 278 L 862 277 L 863 276 L 863 275 L 864 274 L 864 273 L 865 272 L 865 271 L 866 270 L 866 269 L 868 267 L 868 266 L 869 265 L 869 264 L 870 263 L 870 262 L 871 261 L 871 260 L 872 259 L 872 258 L 873 257 L 873 256 L 875 254 L 876 255 L 877 255 L 879 257 L 880 257 L 882 259 L 883 259 L 884 260 L 885 260 L 887 262 L 888 262 L 890 264 L 891 264 L 893 266 L 894 266 L 896 268 L 897 268 L 899 270 L 900 270 L 901 271 L 904 271 L 905 272 L 912 272 L 913 271 L 915 271 L 916 270 L 917 270 L 919 268 L 920 268 L 922 266 L 922 265 L 924 263 L 924 262 L 926 260 L 926 259 L 928 257 L 928 256 L 930 254 L 930 253 L 932 251 L 932 250 L 933 249 L 933 248 L 935 246 L 935 245 L 937 243 L 937 242 L 939 240 L 939 239 L 941 237 L 941 236 L 943 234 L 943 233 L 945 231 L 945 230 L 946 229 L 946 228 L 948 226 L 948 225 L 950 223 L 950 222 L 952 220 L 952 219 L 954 217 L 954 216 L 956 214 L 956 213 L 958 211 L 958 210 L 960 208 L 960 207 L 961 206 L 961 205 L 963 203 L 963 202 L 965 200 L 965 199 L 967 197 L 967 196 L 969 194 L 969 193 L 971 191 L 971 190 L 973 188 L 973 187 L 974 186 L 974 185 L 976 183 L 976 182 L 978 180 L 978 179 L 980 177 L 980 176 L 981 175 L 981 174 L 982 173 L 982 169 L 983 168 L 983 166 L 982 165 L 982 161 L 981 160 L 981 159 L 980 158 L 980 157 L 975 152 L 974 152 L 972 150 L 971 150 L 969 148 L 968 148 L 966 146 L 965 146 L 963 144 L 962 144 L 961 143 L 960 143 L 958 141 L 957 141 L 955 139 L 954 139 L 952 137 L 951 137 L 949 135 L 948 135 L 946 133 L 945 133 L 943 131 L 942 131 L 941 130 L 940 130 L 938 128 L 937 128 L 935 126 L 934 126 L 932 124 L 931 124 L 929 122 L 928 122 L 926 120 L 925 120 L 923 118 L 922 118 L 920 116 L 919 116 L 918 115 L 917 115 L 915 113 L 914 113 L 912 111 L 911 111 L 909 109 L 908 109 L 906 107 L 905 107 L 903 105 L 902 105 L 900 103 L 899 103 L 897 101 L 896 101 L 895 100 L 894 100 L 892 98 L 891 98 L 889 96 L 888 96 L 886 94 L 884 94 L 883 93 L 872 93 L 871 94 L 870 94 L 869 95 L 868 95 L 862 101 L 862 102 L 860 104 L 860 105 L 858 107 L 858 108 L 857 109 L 857 110 L 855 112 L 855 113 L 853 115 L 853 116 L 851 118 L 851 119 L 849 121 L 849 122 L 847 124 L 847 125 L 845 127 L 845 128 L 844 129 L 844 130 L 842 132 L 842 133 L 840 135 L 840 136 L 838 138 L 837 138 L 836 137 L 835 137 L 834 136 L 833 136 L 832 135 L 831 135 L 830 134 L 829 134 L 828 133 L 827 133 L 825 131 L 824 131 L 823 130 L 822 130 L 821 129 L 820 129 L 819 128 L 818 128 L 817 127 L 816 127 L 815 126 L 805 126 L 804 127 L 803 127 L 802 128 L 801 128 L 796 133 L 796 134 L 795 135 L 795 136 L 794 137 L 794 138 L 793 139 L 793 140 L 792 141 L 792 142 L 791 143 L 791 144 L 790 145 L 790 146 L 788 148 L 788 149 L 787 150 L 787 151 L 786 152 L 786 153 L 785 154 L 785 155 L 784 156 L 784 157 L 783 158 L 783 159 L 782 160 L 782 161 L 780 163 L 780 164 L 779 165 L 779 166 L 778 167 L 778 168 L 776 170 L 775 169 L 773 169 L 772 168 L 771 168 L 770 167 L 769 167 L 768 166 L 766 166 L 765 165 L 764 165 L 763 164 L 762 164 L 761 163 L 759 163 L 758 162 L 757 162 L 756 161 L 748 161 L 747 162 L 745 162 L 743 164 L 742 164 L 741 165 L 741 166 L 739 168 L 739 169 L 738 170 L 738 171 L 737 172 L 737 174 L 736 175 L 736 176 L 735 177 L 735 179 L 734 180 L 734 181 L 733 182 L 733 183 L 732 184 L 732 186 L 731 187 L 731 188 L 730 189 L 730 190 L 729 191 L 729 193 L 728 194 L 728 195 L 727 196 L 727 197 L 726 198 L 726 200 L 725 201 L 725 202 L 724 203 L 722 203 L 721 202 L 719 202 L 718 201 L 716 201 L 715 200 L 713 200 L 712 199 L 710 199 L 709 198 L 707 198 L 706 197 L 699 197 L 698 198 L 696 198 L 694 200 L 693 200 L 692 201 L 692 202 L 691 203 L 691 204 L 690 205 L 690 207 L 689 208 L 689 210 L 688 211 L 688 213 L 687 214 L 687 216 L 686 217 L 686 219 L 685 220 L 685 222 L 684 223 L 684 225 L 683 226 L 683 228 L 682 229 L 682 231 L 681 232 L 681 234 L 680 235 L 680 236 L 679 237 L 677 237 L 676 236 L 673 236 L 672 235 L 668 235 L 667 234 L 664 234 L 663 233 L 658 233 L 657 234 L 655 234 L 653 236 L 652 236 L 652 237 L 650 239 L 650 240 L 649 241 L 649 245 L 648 246 L 648 249 L 647 250 L 647 253 L 646 254 L 646 257 L 645 258 L 645 262 L 644 263 L 644 266 L 643 267 L 643 270 L 642 271 L 638 271 L 637 270 L 631 270 L 630 269 L 623 269 L 622 270 L 620 270 L 617 273 L 617 274 L 616 275 L 616 277 L 615 278 L 615 285 L 614 286 L 614 292 L 613 293 L 613 299 L 612 300 L 612 303 L 611 304 L 594 304 L 593 305 L 592 305 L 589 308 L 589 309 L 588 310 L 588 324 L 587 325 L 587 336 L 586 337 L 572 337 L 571 338 L 570 338 L 567 341 L 567 343 L 566 344 L 566 352 L 567 353 L 567 367 L 566 368 L 560 368 L 559 369 L 554 369 L 553 370 L 552 370 L 550 372 L 550 373 L 549 374 L 549 379 L 550 380 L 550 387 L 551 388 L 551 395 L 552 396 L 551 397 L 549 397 L 548 398 L 544 398 L 543 399 L 540 399 L 537 402 L 537 403 L 536 404 L 536 407 L 537 408 L 537 412 L 538 413 L 538 416 L 539 417 L 539 421 L 540 422 L 540 423 L 538 425 L 536 425 L 535 426 L 533 426 L 532 427 L 530 427 L 528 429 L 528 430 L 527 431 L 527 435 L 528 436 L 528 438 L 529 439 L 529 441 L 530 442 L 530 445 L 531 446 L 531 448 L 532 449 L 531 450 L 530 450 L 529 451 L 528 451 L 527 452 L 525 452 L 524 453 L 523 453 L 522 454 L 522 455 L 521 456 L 521 460 L 522 461 L 522 463 L 523 464 L 523 465 L 524 466 L 524 468 L 525 469 L 525 470 L 526 471 L 526 473 L 525 474 L 524 474 L 523 475 L 522 475 L 521 476 L 520 476 L 518 478 L 518 479 L 517 480 L 517 482 L 518 483 L 518 484 L 519 485 L 519 486 L 520 487 L 520 488 L 521 489 L 521 490 L 522 491 L 522 492 L 523 493 L 523 494 L 520 497 L 519 497 L 516 500 L 516 504 L 518 506 L 518 507 L 519 508 L 519 509 L 521 511 L 521 512 L 522 513 L 522 514 L 519 517 L 518 517 L 517 518 L 517 524 L 510 531 L 507 528 L 506 528 L 503 525 L 503 524 L 507 520 L 507 519 L 508 518 L 508 517 L 509 516 L 509 514 L 508 513 L 508 512 L 503 507 L 502 507 L 500 505 L 507 498 L 507 497 L 508 496 L 508 491 L 500 483 L 500 482 L 507 475 L 508 475 L 508 474 L 509 473 L 509 467 L 508 466 L 508 465 L 501 458 L 501 457 L 502 456 L 503 456 L 507 452 L 508 452 L 513 447 L 513 441 L 512 440 L 512 439 L 509 436 L 509 435 L 506 432 L 506 431 L 505 430 L 508 427 L 509 427 L 510 426 L 511 426 L 513 424 L 514 424 L 516 422 L 517 422 L 519 420 L 519 418 L 520 417 L 520 413 L 519 412 L 519 411 L 518 410 L 518 409 L 517 408 L 517 407 L 515 405 L 515 404 L 513 402 L 513 401 L 512 400 L 514 398 L 515 398 L 516 397 L 517 397 L 518 396 L 519 396 L 521 394 L 522 394 L 523 393 L 524 393 L 525 392 L 526 392 L 529 389 L 529 388 L 530 387 L 530 381 L 529 380 L 529 379 L 528 378 L 528 377 L 527 376 L 527 375 L 526 374 L 526 373 L 525 372 L 525 371 L 524 370 L 524 369 L 523 368 L 523 367 L 525 365 L 527 365 L 528 364 L 529 364 L 530 363 L 532 363 L 533 362 L 534 362 L 535 361 L 537 361 L 538 360 L 539 360 L 541 358 L 542 358 L 542 357 L 544 355 L 544 346 L 543 345 L 543 344 L 542 343 L 542 341 L 541 340 L 541 339 L 540 338 L 540 336 L 539 335 L 539 334 L 538 333 L 538 332 L 540 330 L 542 330 L 543 329 L 545 329 L 546 328 L 549 328 L 550 327 L 552 327 L 553 326 L 555 326 L 556 325 L 558 325 L 562 321 L 562 320 L 563 319 L 563 310 L 562 309 L 562 306 L 561 305 L 561 303 L 560 302 L 560 300 L 559 299 L 559 296 L 558 295 L 558 294 L 559 293 L 561 293 L 562 292 L 566 292 L 567 291 L 571 291 L 572 290 L 575 290 L 576 289 L 580 289 L 581 288 L 582 288 L 587 283 L 587 281 L 588 280 L 588 272 L 587 271 L 587 267 L 586 266 L 586 263 L 585 262 L 585 258 L 584 257 L 584 254 L 585 253 L 592 253 L 593 252 L 600 252 L 601 251 L 608 251 L 609 250 L 611 250 L 612 249 L 613 249 L 617 245 L 617 244 L 618 243 L 618 242 L 619 241 L 619 231 L 618 230 L 618 223 L 617 222 L 617 214 L 616 213 L 617 212 L 634 212 L 635 211 L 646 211 L 647 210 L 649 210 L 651 208 L 652 208 L 654 206 L 654 205 L 656 203 L 656 201 L 657 200 L 657 173 L 656 172 L 656 170 L 657 169 L 658 169 L 659 170 L 676 170 L 677 171 L 690 171 L 691 170 L 693 170 L 694 169 L 695 169 L 697 167 L 698 167 L 700 165 L 700 164 L 702 162 L 702 160 L 703 159 L 703 154 L 704 153 L 704 135 L 705 134 L 705 117 L 706 116 L 706 98 L 707 97 L 707 79 L 708 78 L 708 61 L 709 60 L 709 45 L 708 44 L 708 42 L 707 41 L 707 40 L 701 34 L 700 34 L 699 33 L 697 33 L 696 32 L 686 32 L 685 31 L 667 31 L 666 30 L 649 30 L 648 29 L 630 29 L 629 28 L 612 28 L 611 27 L 593 27 L 592 26 Z M 587 518 L 588 517 L 594 517 L 595 518 L 597 518 L 598 519 L 599 519 L 601 521 L 602 521 L 604 523 L 605 523 L 606 524 L 607 524 L 609 526 L 610 526 L 612 528 L 613 528 L 615 530 L 616 530 L 618 532 L 619 532 L 621 534 L 622 534 L 624 536 L 625 536 L 626 537 L 627 537 L 629 539 L 630 539 L 632 541 L 633 541 L 635 543 L 636 543 L 638 545 L 639 545 L 641 547 L 642 547 L 644 549 L 645 549 L 647 551 L 648 551 L 649 552 L 650 552 L 652 554 L 653 554 L 655 556 L 656 556 L 658 558 L 659 558 L 661 560 L 662 560 L 664 562 L 665 562 L 667 564 L 668 564 L 669 565 L 670 565 L 672 567 L 673 567 L 675 569 L 676 569 L 678 571 L 679 571 L 681 573 L 682 573 L 684 575 L 685 575 L 687 577 L 688 577 L 690 579 L 691 579 L 692 580 L 693 580 L 695 582 L 696 582 L 698 584 L 699 584 L 701 586 L 702 586 L 708 592 L 708 593 L 709 594 L 709 596 L 710 597 L 710 605 L 709 606 L 709 607 L 708 608 L 708 609 L 707 610 L 707 611 L 705 613 L 705 614 L 703 616 L 703 617 L 701 619 L 701 620 L 699 622 L 699 623 L 697 625 L 697 626 L 695 628 L 695 629 L 694 630 L 694 631 L 692 633 L 692 634 L 690 636 L 690 637 L 688 639 L 688 640 L 686 642 L 686 643 L 684 645 L 684 646 L 682 648 L 682 649 L 680 651 L 680 652 L 679 653 L 679 654 L 677 656 L 677 657 L 675 659 L 675 660 L 673 662 L 673 663 L 671 665 L 671 666 L 669 668 L 669 669 L 667 671 L 667 672 L 666 673 L 666 674 L 664 676 L 664 677 L 662 679 L 662 680 L 660 682 L 660 683 L 658 685 L 658 686 L 656 688 L 656 689 L 654 691 L 654 692 L 652 694 L 652 695 L 651 696 L 651 697 L 649 699 L 649 700 L 647 702 L 647 703 L 645 705 L 645 706 L 643 708 L 643 709 L 641 711 L 641 712 L 636 717 L 635 717 L 634 718 L 633 718 L 632 719 L 630 719 L 629 720 L 624 720 L 623 719 L 621 719 L 620 718 L 619 718 L 618 717 L 617 717 L 615 715 L 614 715 L 612 713 L 611 713 L 610 712 L 609 712 L 607 710 L 606 710 L 604 708 L 603 708 L 601 706 L 600 706 L 598 704 L 597 704 L 595 702 L 594 702 L 592 700 L 591 700 L 590 699 L 589 699 L 587 697 L 586 697 L 584 695 L 583 695 L 581 693 L 580 693 L 578 691 L 577 691 L 575 689 L 574 689 L 572 687 L 571 687 L 569 685 L 568 685 L 567 684 L 566 684 L 564 682 L 563 682 L 561 680 L 560 680 L 558 678 L 557 678 L 555 676 L 554 676 L 552 674 L 551 674 L 549 672 L 548 672 L 546 670 L 545 670 L 544 669 L 543 669 L 541 667 L 540 667 L 538 665 L 537 665 L 535 663 L 534 663 L 532 661 L 531 661 L 529 659 L 528 659 L 526 657 L 525 657 L 524 656 L 523 656 L 521 654 L 520 654 L 518 652 L 517 652 L 514 649 L 513 649 L 512 648 L 512 647 L 509 644 L 509 642 L 508 641 L 508 638 L 507 637 L 507 635 L 508 634 L 508 631 L 509 630 L 509 629 L 510 628 L 510 627 L 512 625 L 512 624 L 514 622 L 514 621 L 516 619 L 516 618 L 518 616 L 518 615 L 519 614 L 519 613 L 521 611 L 521 610 L 523 608 L 523 607 L 525 605 L 525 604 L 527 602 L 527 601 L 529 599 L 529 598 L 531 596 L 531 595 L 532 594 L 532 593 L 534 591 L 534 590 L 536 588 L 536 587 L 538 585 L 538 584 L 540 582 L 540 581 L 542 579 L 542 578 L 544 576 L 544 575 L 546 573 L 546 572 L 547 571 L 547 570 L 549 568 L 549 567 L 551 565 L 551 564 L 553 562 L 553 561 L 555 559 L 555 558 L 557 556 L 557 555 L 559 553 L 559 552 L 561 550 L 561 549 L 562 548 L 562 547 L 564 545 L 564 544 L 566 542 L 566 541 L 568 539 L 568 538 L 570 536 L 570 535 L 572 533 L 572 532 L 574 530 L 574 529 L 575 528 L 575 527 L 578 524 L 578 523 L 580 521 L 581 521 L 583 519 L 584 519 L 585 518 Z"/>
</svg>